<svg version="1.1" id="Layer_1" xmlns="http://www.w3.org/2000/svg" xmlns:xlink="http://www.w3.org/1999/xlink" x="0px" y="0px"
	 width="100%" viewBox="0 0 647 537" enable-background="new 0 0 647 537" xml:space="preserve">
<path fill="#020637" opacity="1.000000" stroke="none" 
	d="
M1.000000,205.000000 
	C1.000000,136.666687 1.000000,68.833374 1.000000,1.000046 
	C216.666580,1.000030 432.333160,1.000030 647.999817,1.000015 
	C647.999878,179.999863 647.999878,358.999725 647.999939,537.999634 
	C432.333527,537.999756 216.667068,537.999756 1.000303,537.999878 
	C1.000000,427.166656 1.000000,316.333344 1.000000,205.000000 
M86.812004,230.313171 
	C84.836769,232.343277 82.775635,234.297379 80.900726,236.416245 
	C71.319992,247.243576 64.322426,259.120239 67.115013,274.357513 
	C69.266640,286.097504 76.000496,295.467896 84.092194,303.765381 
	C97.701965,317.721252 111.594391,331.403961 125.507736,345.059113 
	C127.944435,347.450623 129.005432,349.785828 128.980621,353.261017 
	C128.829620,374.420837 128.478241,395.596710 129.129089,416.738434 
	C129.546997,430.313965 133.354294,443.021942 144.599045,452.223724 
	C153.615662,459.602142 164.377274,461.604034 175.456558,461.772156 
	C196.449753,462.090668 217.452057,461.779114 238.448349,461.971283 
	C240.616486,461.991119 243.309906,463.103333 244.844742,464.629028 
	C257.725891,477.433167 270.119659,490.738373 283.236511,503.290436 
	C290.155396,509.911377 297.805450,515.989624 305.883392,521.119141 
	C314.969452,526.888794 325.230042,527.576721 335.678253,524.270081 
	C346.058044,520.985168 353.853973,514.019531 361.323090,506.624603 
	C375.297119,492.789429 389.055176,478.735138 403.115997,464.989838 
	C404.876312,463.269073 407.915253,462.017670 410.379150,461.987885 
	C430.207794,461.748047 450.040863,461.906311 469.871979,461.815552 
	C474.686615,461.793549 479.535370,461.582611 484.306030,460.971497 
	C502.216797,458.677155 514.489929,449.416504 519.237000,431.542511 
	C520.595398,426.427734 521.846191,421.104919 521.920898,415.860077 
	C522.231689,394.036072 522.135437,372.205078 522.022827,350.377502 
	C522.006226,347.150696 522.848816,344.841339 525.197266,342.535675 
	C538.277771,329.693634 551.226624,316.716156 564.123169,303.688690 
	C567.632507,300.143707 571.019836,296.433716 574.095215,292.511017 
	C587.110901,275.908905 587.926208,260.060486 576.483582,242.332504 
	C573.434387,237.608444 569.862305,233.102722 565.922119,229.094559 
	C552.489014,215.429657 538.708252,202.106476 525.278442,188.438416 
	C523.557922,186.687363 522.288818,183.688599 522.237671,181.238022 
	C521.990601,169.412628 522.420349,157.574280 522.247803,145.745819 
	C522.073120,133.770126 522.191467,121.722427 520.896851,109.846298 
	C518.828796,90.875137 508.036072,78.504784 490.642029,74.519318 
	C483.728210,72.935158 476.470215,72.370674 469.353424,72.249100 
	C451.193634,71.938881 433.023834,72.021523 414.861084,72.221924 
	C410.576874,72.269196 407.542053,71.139114 404.457764,67.985565 
	C389.548920,52.741936 374.563019,37.558262 359.146606,22.832653 
	C350.739624,14.802381 340.774658,8.973877 328.751526,8.022175 
	C314.622894,6.903815 303.674133,13.757483 294.135223,23.004917 
	C279.300476,37.386364 264.740417,52.059357 250.359558,66.895309 
	C246.582413,70.791977 242.811630,72.302437 237.368515,72.289375 
	C214.384903,72.234192 191.366379,72.048027 168.426651,73.211433 
	C151.368851,74.076546 138.220230,82.332367 132.596252,99.451988 
	C130.697006,105.233360 129.221390,111.433281 129.106583,117.471489 
	C128.685394,139.624802 129.012711,161.791595 128.770462,183.950165 
	C128.743607,186.405685 127.473831,189.428314 125.757217,191.191925 
	C113.088478,204.207428 100.159874,216.970001 86.812004,230.313171 
z"/>
<path fill="#F3F4F2" opacity="1.000000" stroke="none" 
	d="
M87.062515,230.062653 
	C100.159874,216.970001 113.088478,204.207428 125.757217,191.191925 
	C127.473831,189.428314 128.743607,186.405685 128.770462,183.950165 
	C129.012711,161.791595 128.685394,139.624802 129.106583,117.471489 
	C129.221390,111.433281 130.697006,105.233360 132.596252,99.451988 
	C138.220230,82.332367 151.368851,74.076546 168.426651,73.211433 
	C191.366379,72.048027 214.384903,72.234192 237.368515,72.289375 
	C242.811630,72.302437 246.582413,70.791977 250.359558,66.895309 
	C264.740417,52.059357 279.300476,37.386364 294.135223,23.004917 
	C303.674133,13.757483 314.622894,6.903815 328.751526,8.022175 
	C340.774658,8.973877 350.739624,14.802381 359.146606,22.832653 
	C374.563019,37.558262 389.548920,52.741936 404.457764,67.985565 
	C407.542053,71.139114 410.576874,72.269196 414.861084,72.221924 
	C433.023834,72.021523 451.193634,71.938881 469.353424,72.249100 
	C476.470215,72.370674 483.728210,72.935158 490.642029,74.519318 
	C508.036072,78.504784 518.828796,90.875137 520.896851,109.846298 
	C522.191467,121.722427 522.073120,133.770126 522.247803,145.745819 
	C522.420349,157.574280 521.990601,169.412628 522.237671,181.238022 
	C522.288818,183.688599 523.557922,186.687363 525.278442,188.438416 
	C538.708252,202.106476 552.489014,215.429657 565.922119,229.094559 
	C569.862305,233.102722 573.434387,237.608444 576.483582,242.332504 
	C587.926208,260.060486 587.110901,275.908905 574.095215,292.511017 
	C571.019836,296.433716 567.632507,300.143707 564.123169,303.688690 
	C551.226624,316.716156 538.277771,329.693634 525.197266,342.535675 
	C522.848816,344.841339 522.006226,347.150696 522.022827,350.377502 
	C522.135437,372.205078 522.231689,394.036072 521.920898,415.860077 
	C521.846191,421.104919 520.595398,426.427734 519.237000,431.542511 
	C514.489929,449.416504 502.216797,458.677155 484.306030,460.971497 
	C479.535370,461.582611 474.686615,461.793549 469.871979,461.815552 
	C450.040863,461.906311 430.207794,461.748047 410.379150,461.987885 
	C407.915253,462.017670 404.876312,463.269073 403.115997,464.989838 
	C389.055176,478.735138 375.297119,492.789429 361.323090,506.624603 
	C353.853973,514.019531 346.058044,520.985168 335.678253,524.270081 
	C325.230042,527.576721 314.969452,526.888794 305.883392,521.119141 
	C297.805450,515.989624 290.155396,509.911377 283.236511,503.290436 
	C270.119659,490.738373 257.725891,477.433167 244.844742,464.629028 
	C243.309906,463.103333 240.616486,461.991119 238.448349,461.971283 
	C217.452057,461.779114 196.449753,462.090668 175.456558,461.772156 
	C164.377274,461.604034 153.615662,459.602142 144.599045,452.223724 
	C133.354294,443.021942 129.546997,430.313965 129.129089,416.738434 
	C128.478241,395.596710 128.829620,374.420837 128.980621,353.261017 
	C129.005432,349.785828 127.944435,347.450623 125.507736,345.059113 
	C111.594391,331.403961 97.701965,317.721252 84.092194,303.765381 
	C76.000496,295.467896 69.266640,286.097504 67.115013,274.357513 
	C64.322426,259.120239 71.319992,247.243576 80.900726,236.416245 
	C82.775635,234.297379 84.836769,232.343277 87.062515,230.062653 
M128.870407,199.410538 
	C128.490265,199.570572 128.110138,199.730606 127.138611,200.115921 
	C125.718254,201.653366 124.297897,203.190826 122.252968,205.002808 
	C111.092636,216.305466 99.932312,227.608109 88.165024,239.172592 
	C85.536804,242.386078 82.691193,245.447540 80.319023,248.840073 
	C71.368568,261.640503 71.566063,274.674774 80.276558,287.419037 
	C83.827087,292.613831 87.904510,297.541595 92.298859,302.048096 
	C103.114845,313.140106 114.272598,323.898438 125.229897,334.853973 
	C126.215042,335.838959 126.743233,337.281006 127.483635,338.510773 
	C127.949066,338.110962 128.414490,337.711151 128.879929,337.311340 
	C128.879929,303.208160 128.879929,269.105011 129.048233,234.260101 
	C128.989578,233.506149 128.930908,232.752213 129.034195,231.077087 
	C128.968399,226.052078 128.902603,221.027054 128.988144,215.209793 
	C128.933914,214.139236 128.879684,213.068680 128.970764,211.086792 
	C128.912399,207.392197 128.854050,203.697601 128.870407,199.410538 
M285.189575,77.447075 
	C283.394226,78.031181 281.607300,79.087921 279.802124,79.120071 
	C270.473572,79.286194 261.135437,79.026115 251.812393,79.306084 
	C249.610321,79.372208 246.963577,80.423119 245.361938,81.920250 
	C238.913940,87.947556 232.901230,94.438850 226.497406,100.516052 
	C224.270798,102.629105 222.068222,107.610458 218.180908,103.653450 
	C214.549423,99.956871 219.380219,97.862991 221.361404,95.715240 
	C226.348999,90.308319 231.662201,85.201736 236.835190,79.984535 
	C213.833542,79.984535 191.364822,79.346252 168.951981,80.190773 
	C151.681274,80.841537 141.640137,90.343758 137.845901,107.355766 
	C136.659561,112.674866 136.011139,118.215919 135.948761,123.664902 
	C135.750397,140.991959 135.939774,158.323517 135.994843,175.653290 
	C135.999313,177.057541 136.121964,178.461426 136.189682,179.865479 
	C136.598007,180.121872 137.006317,180.378265 137.414627,180.634674 
	C143.466949,174.275375 149.492828,167.890579 155.588730,161.573318 
	C157.276047,159.824738 159.122620,157.313889 161.817764,159.796371 
	C164.561951,162.324020 162.734970,164.553268 160.716675,166.570068 
	C153.527008,173.754410 146.447098,181.052521 139.115585,188.088699 
	C136.731888,190.376373 135.987396,192.742081 135.992905,195.947510 
	C136.075882,244.271591 136.074142,292.595917 135.971039,340.919952 
	C135.964127,344.157318 136.868652,346.416107 139.177078,348.716156 
	C173.644730,383.058655 207.988800,417.525208 242.494141,451.829620 
	C244.130783,453.456696 246.973572,454.616028 249.292618,454.683228 
	C259.781952,454.987274 270.287933,454.699158 280.779449,454.962219 
	C282.229462,454.998566 283.632141,456.922394 285.056732,457.972412 
	C283.663422,459.262573 282.467010,461.141785 280.825806,461.690460 
	C278.876312,462.342133 276.544312,461.852142 274.378052,461.852509 
	C267.357422,461.853760 260.336792,461.852936 252.661987,461.852936 
	C267.840149,477.127380 281.799347,492.164978 296.825226,506.048035 
	C315.985077,523.750549 332.904755,523.483337 351.821838,505.637604 
	C366.479401,491.810211 380.402496,477.204193 394.630096,462.922394 
	C394.760773,462.791199 394.590485,462.360168 394.538605,461.852722 
	C386.072906,461.852722 377.597443,461.881989 369.122345,461.836029 
	C366.355164,461.821014 362.825562,462.386810 362.866211,458.145203 
	C362.904449,454.152039 366.298920,454.832306 368.870117,454.821472 
	C378.534790,454.780701 388.205658,454.617920 397.861786,454.910187 
	C401.733124,455.027374 404.359985,453.744476 406.946564,451.013367 
	C413.246307,444.361633 419.709473,437.850616 426.400970,431.597687 
	C427.539795,430.533539 430.137543,431.030609 432.061310,430.806427 
	C431.852600,432.701630 431.979828,434.724426 431.324524,436.450043 
	C430.836823,437.734375 429.338226,438.636322 428.285553,439.704315 
	C423.581421,444.476776 418.875702,449.247681 414.174500,454.015167 
	C437.144226,454.015167 459.605286,454.625183 482.014709,453.812683 
	C498.496094,453.215118 509.151733,443.556244 512.839478,428.064941 
	C514.026733,423.077728 514.871094,417.886963 514.938416,412.777039 
	C515.177673,394.617828 515.020020,376.453278 514.991882,358.290802 
	C514.989685,356.894562 514.823914,355.498596 514.694519,353.486420 
	C512.870178,355.222626 511.545074,356.435974 510.273041,357.702606 
	C504.841400,363.111084 499.455933,368.566376 493.987274,373.937042 
	C492.035339,375.854034 489.913940,378.871918 486.978424,375.738342 
	C484.111755,372.678314 487.311279,370.746063 489.102386,368.711548 
	C489.432068,368.337097 489.805359,368.001068 490.157501,367.646301 
	C497.434967,360.313843 504.831451,353.093079 511.898804,345.563385 
	C513.500305,343.857056 514.809631,341.080627 514.817566,338.791748 
	C514.987732,289.968231 514.986877,241.143860 514.844482,192.320206 
	C514.838196,190.162216 513.726257,187.463974 512.206604,185.933609 
	C477.687561,151.172028 443.063629,116.514313 408.335907,81.961197 
	C406.802399,80.435364 404.119324,79.363876 401.939880,79.307335 
	C391.448883,79.035187 380.946930,79.200539 370.448944,79.172012 
	C367.986053,79.165321 364.936340,79.590179 364.900726,75.894836 
	C364.863525,72.040184 367.942871,72.159309 370.665741,72.154243 
	C378.497589,72.139671 386.329559,72.164314 394.161316,72.131866 
	C395.352295,72.126938 396.542328,71.900330 397.732819,71.776260 
	C398.170471,71.159653 398.608124,70.543045 399.045746,69.926437 
	C386.468872,58.008957 374.014984,45.957623 361.257660,34.236530 
	C355.763550,29.188658 349.976532,24.306002 343.729706,20.264696 
	C332.677887,13.114879 320.660980,12.564602 310.009430,20.358265 
	C300.560791,27.271755 292.418274,35.970333 283.096832,44.132301 
	C274.035980,53.216183 264.975098,62.300064 255.147049,72.153076 
	C264.377686,72.153076 272.326935,72.212318 280.274567,72.125145 
	C283.653015,72.088089 285.742188,73.224060 285.189575,77.447075 
M225.485794,445.015564 
	C195.953384,415.381958 166.420959,385.748352 135.798172,355.020660 
	C135.798172,372.635895 135.771194,388.580811 135.815948,404.525543 
	C135.828094,408.852814 135.797745,413.205444 136.228943,417.502075 
	C138.678665,441.911774 148.797089,452.553650 173.104401,454.189484 
	C189.852890,455.316681 206.720703,454.674927 223.535294,454.812225 
	C226.953186,454.840118 230.371506,454.816254 233.789627,454.816254 
	C234.085602,454.343414 234.381561,453.870575 234.677536,453.397705 
	C231.779861,450.770996 228.882202,448.144257 225.485794,445.015564 
M515.080444,149.500153 
	C515.033020,139.337723 515.316467,129.160828 514.873413,119.015678 
	C513.751892,93.333061 502.879364,81.386398 477.350433,79.755562 
	C458.761627,78.568069 440.049408,79.308464 421.392090,79.207397 
	C419.984772,79.199776 418.576630,79.336723 415.875458,79.470535 
	C449.259216,112.748474 481.806946,145.193039 515.076416,178.357040 
	C515.076416,168.397537 515.076416,159.448822 515.080444,149.500153 
M550.121826,307.621948 
	C555.789917,301.752380 561.868286,296.221466 567.046448,289.947540 
	C580.678345,273.430908 581.192566,257.963104 567.115723,241.801270 
	C554.235291,227.013000 539.812927,213.568924 526.106018,199.497437 
	C525.013977,198.376358 524.202209,196.982239 523.260193,195.715027 
	C522.909668,196.038528 522.559143,196.362030 522.208618,196.685547 
	C522.208618,242.677338 522.208618,288.669128 522.208618,335.666992 
	C531.823730,326.005402 540.722534,317.063538 550.121826,307.621948 
z"/>
<path fill="#030737" opacity="1.000000" stroke="none" 
	d="
M283.699219,43.880928 
	C292.418274,35.970333 300.560791,27.271755 310.009430,20.358265 
	C320.660980,12.564602 332.677887,13.114879 343.729706,20.264696 
	C349.976532,24.306002 355.763550,29.188658 361.257660,34.236530 
	C374.014984,45.957623 386.468872,58.008957 399.045746,69.926437 
	C398.608124,70.543045 398.170471,71.159653 397.732819,71.776260 
	C396.542328,71.900330 395.352295,72.126938 394.161316,72.131866 
	C386.329559,72.164314 378.497589,72.139671 370.665741,72.154243 
	C367.942871,72.159309 364.863525,72.040184 364.900726,75.894836 
	C364.936340,79.590179 367.986053,79.165321 370.448944,79.172012 
	C380.946930,79.200539 391.448883,79.035187 401.939880,79.307335 
	C404.119324,79.363876 406.802399,80.435364 408.335907,81.961197 
	C443.063629,116.514313 477.687561,151.172028 512.206604,185.933609 
	C513.726257,187.463974 514.838196,190.162216 514.844482,192.320206 
	C514.986877,241.143860 514.987732,289.968231 514.817566,338.791748 
	C514.809631,341.080627 513.500305,343.857056 511.898804,345.563385 
	C504.831451,353.093079 497.434967,360.313843 490.157501,367.646301 
	C489.805359,368.001068 489.432068,368.337097 489.102386,368.711548 
	C487.311279,370.746063 484.111755,372.678314 486.978424,375.738342 
	C489.913940,378.871918 492.035339,375.854034 493.987274,373.937042 
	C499.455933,368.566376 504.841400,363.111084 510.273041,357.702606 
	C511.545074,356.435974 512.870178,355.222626 514.694519,353.486420 
	C514.823914,355.498596 514.989685,356.894562 514.991882,358.290802 
	C515.020020,376.453278 515.177673,394.617828 514.938416,412.777039 
	C514.871094,417.886963 514.026733,423.077728 512.839478,428.064941 
	C509.151733,443.556244 498.496094,453.215118 482.014709,453.812683 
	C459.605286,454.625183 437.144226,454.015167 414.174500,454.015167 
	C418.875702,449.247681 423.581421,444.476776 428.285553,439.704315 
	C429.338226,438.636322 430.836823,437.734375 431.324524,436.450043 
	C431.979828,434.724426 431.852600,432.701630 432.061279,430.806458 
	C430.137543,431.030609 427.539795,430.533539 426.400970,431.597687 
	C419.709473,437.850616 413.246307,444.361633 406.946564,451.013367 
	C404.359985,453.744476 401.733124,455.027374 397.861786,454.910187 
	C388.205658,454.617920 378.534790,454.780701 368.870117,454.821472 
	C366.298920,454.832306 362.904449,454.152039 362.866211,458.145203 
	C362.825562,462.386810 366.355164,461.821014 369.122345,461.836029 
	C377.597443,461.881989 386.072906,461.852722 394.538605,461.852722 
	C394.590485,462.360168 394.760773,462.791199 394.630096,462.922394 
	C380.402496,477.204193 366.479401,491.810211 351.821838,505.637604 
	C332.904755,523.483337 315.985077,523.750549 296.825226,506.048035 
	C281.799347,492.164978 267.840149,477.127380 252.661987,461.852936 
	C260.336792,461.852936 267.357422,461.853760 274.378052,461.852509 
	C276.544312,461.852142 278.876312,462.342133 280.825806,461.690460 
	C282.467010,461.141785 283.663422,459.262573 285.056732,457.972412 
	C283.632141,456.922394 282.229462,454.998566 280.779449,454.962219 
	C270.287933,454.699158 259.781952,454.987274 249.292618,454.683228 
	C246.973572,454.616028 244.130783,453.456696 242.494141,451.829620 
	C207.988800,417.525208 173.644730,383.058655 139.177078,348.716156 
	C136.868652,346.416107 135.964127,344.157318 135.971039,340.919952 
	C136.074142,292.595917 136.075882,244.271591 135.992905,195.947510 
	C135.987396,192.742081 136.731888,190.376373 139.115585,188.088699 
	C146.447098,181.052521 153.527008,173.754410 160.716675,166.570068 
	C162.734970,164.553268 164.561951,162.324020 161.817764,159.796371 
	C159.122620,157.313889 157.276047,159.824738 155.588730,161.573318 
	C149.492828,167.890579 143.466949,174.275375 137.414627,180.634674 
	C137.006317,180.378265 136.598007,180.121872 136.189682,179.865479 
	C136.121964,178.461426 135.999313,177.057541 135.994843,175.653290 
	C135.939774,158.323517 135.750397,140.991959 135.948761,123.664902 
	C136.011139,118.215919 136.659561,112.674866 137.845901,107.355766 
	C141.640137,90.343758 151.681274,80.841537 168.951981,80.190773 
	C191.364822,79.346252 213.833542,79.984535 236.835190,79.984535 
	C231.662201,85.201736 226.348999,90.308319 221.361404,95.715240 
	C219.380219,97.862991 214.549423,99.956871 218.180908,103.653450 
	C222.068222,107.610458 224.270798,102.629105 226.497406,100.516052 
	C232.901230,94.438850 238.913940,87.947556 245.361938,81.920250 
	C246.963577,80.423119 249.610321,79.372208 251.812393,79.306084 
	C261.135437,79.026115 270.473572,79.286194 279.802124,79.120071 
	C281.607300,79.087921 283.394226,78.031181 285.847229,77.132660 
	C290.728790,72.402420 290.140198,69.577477 283.425140,62.037567 
	C291.022888,51.027725 291.049805,49.245174 283.699219,43.880928 
M267.057953,371.796936 
	C270.168335,375.720520 273.973175,376.289276 277.466431,373.445435 
	C278.307678,372.760559 279.374542,372.352814 280.283997,372.602600 
	C275.408508,384.999481 275.408508,384.999481 277.844055,386.881134 
	C278.880829,380.613678 282.005096,377.518799 288.492645,380.010437 
	C288.614044,380.057037 288.803253,379.927002 288.953461,380.529816 
	C288.994934,380.742645 289.036377,380.955475 289.070862,381.900665 
	C289.117554,384.918762 284.812012,387.663055 288.484863,391.804535 
	C291.283112,384.591278 293.777527,378.161224 296.255280,371.774231 
	C288.120758,366.911316 285.877869,366.939484 279.211761,371.730804 
	C280.481598,367.211578 279.743317,363.547577 274.903046,361.639465 
	C270.001343,359.707123 267.508118,362.683350 265.380646,366.346375 
	C263.719757,369.206055 261.975159,372.029266 260.536774,374.998993 
	C260.072845,375.956818 260.464050,377.328796 260.464050,378.511322 
	C260.862274,378.541016 261.260498,378.570709 261.658722,378.600372 
	C263.200592,376.076019 264.742462,373.551666 266.696136,371.078125 
	C266.696136,371.078125 267.108643,371.032928 267.057953,371.796936 
M243.740204,338.309601 
	C241.440430,340.629028 239.235443,343.052582 236.822784,345.247955 
	C230.051971,351.408905 230.276276,354.834564 238.459106,359.765167 
	C238.232407,358.282043 237.784058,356.802917 236.828613,355.813354 
	C234.464188,353.364532 234.590683,351.286194 237.112869,349.103455 
	C239.486450,347.049255 241.832458,344.952972 244.055664,342.739685 
	C245.122330,341.677765 245.877594,340.303070 246.773880,339.070007 
	C245.488541,338.691315 244.203217,338.312653 243.144287,337.292328 
	C243.208923,331.590363 237.839981,326.729706 233.733124,329.097015 
	C228.930328,331.865417 224.497482,335.275696 219.814468,338.468658 
	C222.004318,341.689117 223.817795,344.471558 225.785797,347.139984 
	C226.125595,347.600739 227.121063,347.577911 227.813675,347.778442 
	C227.892853,347.055115 228.291321,346.144104 227.995621,345.641174 
	C226.755905,343.532623 225.308289,341.546265 223.810150,339.327545 
	C225.786301,337.983612 227.521332,336.803650 229.227356,335.643433 
	C230.922363,337.677612 232.316101,339.350250 233.709839,341.022858 
	C234.181732,340.775909 234.653625,340.528931 235.125519,340.281982 
	C234.178604,338.155701 233.231689,336.029449 232.250565,333.826416 
	C234.969040,330.787933 237.345291,330.787262 239.665512,334.405975 
	C240.509048,335.721588 241.869049,336.706055 243.740204,338.309601 
M265.555145,166.996704 
	C265.730164,166.986832 265.905151,166.976974 266.759003,166.861099 
	C267.596466,166.331421 268.478973,165.860794 269.263580,165.261856 
	C272.670807,162.660812 273.567688,159.435745 271.166412,155.753540 
	C268.910553,152.294327 265.739868,151.676819 262.111450,153.547562 
	C258.289185,155.518250 257.053162,159.096710 259.124969,163.183319 
	C261.321686,167.516388 263.876770,171.667816 266.275360,175.898560 
	C266.706818,175.827271 267.138275,175.755981 267.569733,175.684692 
	C267.678070,174.685455 268.137390,173.555847 267.824371,172.713120 
	C267.089050,170.733368 265.984497,168.890778 265.555145,166.996704 
M423.197083,311.083130 
	C417.922729,314.245728 416.647064,321.123505 421.035919,323.647949 
	C425.706635,326.334564 430.625977,328.588928 435.402100,331.014374 
	C440.896210,321.777069 441.042145,321.265503 438.642792,319.108643 
	C437.240326,321.726471 435.864563,324.294495 434.367218,327.089386 
	C432.374023,326.072998 430.516449,325.125793 428.749664,324.224854 
	C429.564728,321.613464 430.238220,319.455658 430.911713,317.297852 
	C430.371338,317.099640 429.830963,316.901428 429.290588,316.703217 
	C428.001862,318.643951 426.713135,320.584686 425.510773,322.395355 
	C420.925385,321.241516 420.661072,318.771942 422.645386,315.289459 
	C423.336365,314.076813 423.452057,312.536346 424.279633,310.312836 
	C428.386047,312.784485 431.634277,311.781281 434.773376,308.299805 
	C435.968872,306.973907 438.263763,306.639343 440.057587,305.852966 
	C440.392792,307.762695 440.927002,309.665344 440.995087,311.584534 
	C441.042511,312.921783 440.450684,314.281708 440.144440,315.631531 
	C444.043671,314.208954 444.739502,310.988068 444.375427,308.031616 
	C444.142670,306.141388 442.372101,303.774017 440.650757,302.936829 
	C439.177460,302.220245 436.696564,303.115631 434.847931,303.801270 
	C433.722076,304.218811 433.079407,305.798523 431.984955,306.478241 
	C430.713257,307.268036 429.184692,307.644257 427.767609,308.199951 
	C427.544495,306.715790 427.152618,305.232483 427.145264,303.747253 
	C427.137756,302.233185 427.508362,300.717255 427.713409,299.202118 
	C422.956146,302.475952 424.073914,307.013367 423.197083,311.083130 
M385.304291,362.083099 
	C384.478577,360.767426 383.652832,359.451752 382.827118,358.136078 
	C382.354797,358.277557 381.882507,358.419037 381.410187,358.560516 
	C381.484192,359.584930 381.265625,360.752167 381.683685,361.608643 
	C383.351166,365.024750 385.130493,368.394104 387.034943,371.684357 
	C388.712067,374.581940 388.170776,376.681763 385.248840,378.252930 
	C382.215820,379.883850 380.338196,378.792603 378.874725,375.899139 
	C376.869873,371.935394 374.635162,368.087921 372.498932,364.190643 
	C371.152313,365.131134 370.521759,366.387756 370.895294,367.156494 
	C372.772491,371.019806 374.751862,374.854248 377.002319,378.509857 
	C379.492035,382.554138 382.380981,383.065857 386.759644,380.682037 
	C391.043091,378.350098 391.994965,375.609772 390.053894,371.256622 
	C388.673492,368.160828 387.313080,365.056122 386.534607,361.327881 
	C389.306610,361.924072 392.067505,362.580200 394.854370,363.096161 
	C396.831818,363.462250 398.844269,363.639191 400.841125,363.900574 
	C399.827972,365.930267 398.836456,367.971161 397.792755,369.984985 
	C397.247650,371.036774 396.610870,372.041107 396.015503,373.066864 
	C396.443634,373.369751 396.871796,373.672638 397.299927,373.975525 
	C399.166229,372.409424 401.624725,371.171539 402.727325,369.182129 
	C403.767883,367.304688 404.361572,363.981262 403.363892,362.489960 
	C402.234833,360.802246 399.174408,360.218445 396.835510,359.607910 
	C395.673218,359.304474 394.235352,360.255280 392.942230,360.196503 
	C391.731873,360.141510 390.548065,359.502686 389.352570,359.120789 
	C389.893585,357.870605 390.244751,356.483276 391.023804,355.405090 
	C391.991699,354.065460 393.313385,352.981506 394.482300,351.787109 
	C387.671936,352.774811 386.201904,354.853760 385.304291,362.083099 
M419.386200,194.006943 
	C419.552704,193.995361 419.719208,193.983765 419.524445,194.769775 
	C421.547638,198.876709 421.782745,202.522980 417.142609,205.175812 
	C416.812531,205.364532 417.249054,206.894211 417.329102,207.800369 
	C417.782959,207.949448 418.236786,208.098526 418.690613,208.247604 
	C420.807617,205.504562 422.924652,202.761536 425.041656,200.018494 
	C427.435913,199.339249 430.832855,198.442688 431.664093,196.466782 
	C432.501282,194.476608 431.598450,190.476379 429.974915,189.074310 
	C428.211456,187.551422 424.104340,186.805756 422.138397,187.842865 
	C417.540375,190.268509 413.612030,193.963638 409.412476,197.144699 
	C409.593414,197.610855 409.774323,198.077011 409.955261,198.543167 
	C411.056458,198.357132 412.322479,198.453690 413.225128,197.927231 
	C415.210327,196.769440 417.011902,195.296814 419.386200,194.006943 
M417.454193,342.550751 
	C419.852722,339.615936 422.396332,339.835144 425.266296,341.953949 
	C426.141937,342.600433 427.505310,342.586304 428.645294,342.874725 
	C428.869507,342.201782 429.093689,341.528870 429.317902,340.855957 
	C426.203644,339.439850 423.089386,338.023743 419.975128,336.607635 
	C418.547791,334.384460 416.685638,331.383972 414.372925,330.983185 
	C412.353912,330.633240 409.244293,332.722900 407.662170,334.610931 
	C405.305969,337.422638 406.397400,340.628448 409.084839,342.963623 
	C412.218506,345.686493 415.466553,348.286652 418.783539,350.782440 
	C419.494873,351.317657 420.714478,351.177307 421.699982,351.348206 
	C421.382355,350.420197 421.313446,349.251923 420.696381,348.613159 
	C419.322571,347.191040 417.674683,346.033691 416.648743,344.036774 
	C416.770386,343.765411 416.891998,343.494049 417.454193,342.550751 
M288.285980,156.630417 
	C289.311462,159.142151 290.336975,161.653885 291.458588,164.401093 
	C293.855774,161.872482 291.392517,153.418518 286.066711,143.804718 
	C277.515991,145.762268 274.286652,148.746918 275.042755,153.993408 
	C275.921661,160.092606 280.125427,167.506256 282.573639,167.274796 
	C280.256653,158.282181 280.256653,158.282181 286.662140,156.050079 
	C287.069550,156.037247 287.476990,156.024414 288.285980,156.630417 
M339.656036,308.425964 
	C339.608215,309.684906 339.742706,310.983002 339.482117,312.196228 
	C338.109222,318.587952 340.951904,324.470551 346.732147,326.981842 
	C352.451416,329.466644 359.109619,327.404663 362.488373,322.102264 
	C365.637451,317.160339 364.725464,310.124329 360.412262,306.084625 
	C355.977020,301.930634 349.186493,301.747528 343.869202,305.484558 
	C342.802155,306.234497 341.369720,306.464539 339.762939,306.348999 
	C335.507141,303.568970 331.251312,300.788940 327.009949,297.193451 
	C327.554688,294.479126 328.099426,291.764801 328.711334,288.715820 
	C336.378510,286.526550 344.302429,284.263947 352.250427,281.994446 
	C352.853729,282.936157 353.270111,283.634583 353.732880,284.300781 
	C358.102509,290.591003 365.633423,292.158447 371.555939,288.018250 
	C377.517670,283.850647 378.891388,275.785095 374.621429,270.019653 
	C370.360443,264.266296 362.462677,263.089447 356.581329,267.919006 
	C354.265289,269.820831 352.911469,268.978271 350.710846,267.386841 
	C343.813232,262.922821 336.915619,258.458832 329.863556,253.262375 
	C330.510834,251.926498 331.175201,250.598587 331.802673,249.253479 
	C337.809753,236.376328 334.272430,221.397888 323.130157,212.503860 
	C312.319916,203.874893 296.744629,203.702454 285.763702,212.218399 
	C284.598145,213.122330 283.958984,214.704987 283.153381,215.958939 
	C283.153381,215.958939 283.178864,215.884216 282.596527,215.282562 
	C273.407837,224.297791 271.197784,238.488602 277.161255,250.182556 
	C283.123413,261.873932 296.113403,268.395477 308.628601,266.478912 
	C316.969849,265.201538 323.136597,260.503387 329.348755,255.601852 
	C336.243835,260.047394 343.138947,264.492920 350.555420,269.433472 
	C355.784637,272.496185 349.853210,276.616119 352.178986,280.169739 
	C343.703308,282.594757 335.760040,284.867432 327.742065,287.161499 
	C327.187866,286.262878 326.803345,285.554382 326.340240,284.901642 
	C321.792786,278.492096 313.941803,276.992950 308.009308,281.388550 
	C302.600952,285.395782 301.316101,293.287109 305.182861,298.748016 
	C309.523956,304.878784 317.241882,305.891937 323.629211,301.272644 
	C324.577545,300.586823 325.871674,300.379211 327.435272,300.471313 
	C331.305634,302.950409 335.175995,305.429535 339.656036,308.425964 
M450.351166,274.762268 
	C452.651581,271.201874 452.447083,267.297089 449.435242,264.850281 
	C447.365662,263.168915 443.271606,262.073395 441.040192,263.006470 
	C438.557709,264.044464 435.883972,267.578552 435.672699,270.216522 
	C435.483154,272.583527 437.976501,276.088074 440.267426,277.508759 
	C443.482574,279.502594 447.310120,278.748840 450.351166,274.762268 
M208.247360,262.110870 
	C201.645782,262.987030 198.627182,266.203522 199.414124,271.523224 
	C200.139435,276.426392 203.958588,278.969208 209.167450,278.207092 
	C213.407364,277.586761 215.157928,274.500824 215.513977,270.981781 
	C215.968185,266.492432 213.382324,263.533813 208.247360,262.110870 
M372.092682,376.591248 
	C368.580872,368.330658 363.151184,366.686371 354.862030,371.561981 
	C357.116119,378.002747 359.384827,384.485291 361.642548,390.936401 
	C371.434845,387.993408 373.806519,384.836365 372.092682,376.591248 
M366.785614,165.238068 
	C372.334320,163.270935 375.624207,158.254257 374.985352,152.734482 
	C374.404785,147.718491 370.157593,144.401962 363.559174,143.963333 
	C361.368774,150.366714 359.161713,156.818832 356.727081,163.936218 
	C360.296997,164.497696 363.168701,164.949356 366.785614,165.238068 
M341.978668,378.361847 
	C343.937988,377.497467 345.850037,376.173004 347.876740,375.964813 
	C348.874298,375.862366 350.731628,377.645966 351.075684,378.887665 
	C352.091248,382.552277 352.439575,386.396454 353.283722,390.117126 
	C353.543732,391.263184 354.558319,392.238007 355.227417,393.291260 
	C355.709778,393.076538 356.192139,392.861847 356.674500,392.647156 
	C356.231720,390.087341 355.674988,387.541229 355.365356,384.965393 
	C353.794220,371.894226 351.841614,371.566895 339.011230,374.245605 
	C338.880493,374.272888 338.785980,374.473816 338.340332,374.953217 
	C339.335236,380.670410 340.307404,386.701813 341.505005,392.688141 
	C341.697937,393.652618 342.895325,394.416168 343.628418,395.272583 
	C343.990234,394.973877 344.352051,394.675171 344.713898,394.376465 
	C343.822235,389.328033 342.930542,384.279602 341.978668,378.361847 
M347.155273,139.311234 
	C345.868927,139.192917 344.582581,139.074600 342.949249,138.924377 
	C341.774750,146.048523 340.644745,152.902740 339.514771,159.756943 
	C340.314880,159.926819 341.114990,160.096695 341.915100,160.266571 
	C343.151733,154.310272 344.388367,148.353989 345.627747,142.384491 
	C353.477020,142.678070 354.312744,143.668854 353.119568,151.005051 
	C352.533783,154.607040 352.099152,158.233612 351.596100,161.849060 
	C352.134338,162.025162 352.672577,162.201279 353.210815,162.377380 
	C353.738647,161.450165 354.530182,160.579605 354.743866,159.584915 
	C355.336700,156.825500 355.679047,154.012802 356.138123,151.224075 
	C357.559692,142.588806 356.427094,140.975052 347.155273,139.311234 
M199.681427,230.137314 
	C200.055145,231.417480 200.102539,233.553986 200.854828,233.840637 
	C206.255630,235.898651 211.780212,237.646133 217.324493,239.293716 
	C217.964310,239.483826 218.966522,238.454376 220.692154,237.494507 
	C213.788834,235.134781 208.079193,233.183075 202.418259,231.248016 
	C204.697144,222.926392 205.278824,222.612259 212.825333,225.094467 
	C216.071030,226.162033 219.322739,227.211304 222.571701,228.268890 
	C222.932663,227.481995 223.293610,226.695099 223.654572,225.908203 
	C218.919708,223.735382 213.863739,222.050049 208.707336,220.929398 
	C203.989136,219.903961 202.521729,221.565338 199.681427,230.137314 
M228.055313,307.656433 
	C227.117783,304.737030 226.180252,301.817627 225.146164,298.597565 
	C218.079437,300.976318 211.579895,303.164185 205.080338,305.352020 
	C205.203369,305.954254 205.326401,306.556488 205.449432,307.158752 
	C211.794052,307.913849 217.225250,303.098877 223.413681,302.829865 
	C226.576599,310.397186 226.265244,311.076263 218.523880,313.682587 
	C215.266647,314.779205 212.026611,315.926941 208.114807,317.281342 
	C209.445114,318.476837 209.900070,319.123016 210.122696,319.050995 
	C215.436584,317.331787 220.834854,315.787445 225.940384,313.572052 
	C227.181198,313.033630 227.443787,310.240784 228.055313,307.656433 
M386.715912,169.539749 
	C384.780945,172.612625 382.003387,172.317352 380.091034,170.184570 
	C378.968597,168.932739 378.684723,166.037598 379.284027,164.321991 
	C380.471375,160.923264 382.616760,157.869904 384.180603,154.585464 
	C384.647247,153.605392 384.496674,152.331436 384.628906,151.192139 
	C384.094513,151.025497 383.560120,150.858841 383.025726,150.692200 
	C380.608307,155.308853 378.148163,159.903778 375.786407,164.548752 
	C373.733093,168.586945 375.760406,171.189835 379.104614,173.157364 
	C382.607574,175.218338 386.155518,175.793045 388.651703,171.819229 
	C391.111267,167.903702 393.186829,163.740601 395.288147,159.613449 
	C395.597687,159.005493 395.118988,157.996201 395.004974,157.172546 
	C394.248657,157.557831 393.154633,157.744614 392.792084,158.361389 
	C390.779053,161.786026 388.943695,165.315079 386.715912,169.539749 
M313.948700,146.773468 
	C311.970062,142.870743 313.327271,140.933350 317.532043,140.534256 
	C319.099976,140.385437 320.643463,139.979584 322.198120,139.690933 
	C315.668610,136.458038 310.274994,138.149048 310.241913,142.805359 
	C310.202423,148.360718 311.089233,153.922668 311.569214,159.417908 
	C321.948822,159.348190 322.452148,159.217224 323.550201,155.987900 
	C320.457306,156.151550 317.555145,156.305115 314.262512,156.479355 
	C314.143799,154.198807 314.036316,152.133667 313.937775,150.239960 
	C316.584442,149.631332 318.676910,149.150131 320.769409,148.668930 
	C320.703857,148.086929 320.638336,147.504913 320.572784,146.922913 
	C318.650970,146.922913 316.729187,146.922913 313.948700,146.773468 
M317.090851,393.333160 
	C311.015930,393.117401 314.881836,389.025208 314.274811,387.089447 
	C316.147949,384.659790 320.353577,389.394470 321.187500,384.254242 
	C318.751099,383.866455 316.693604,383.539001 314.686035,383.219482 
	C314.020447,374.291656 321.134705,379.536102 324.239624,376.572906 
	C321.863281,375.568939 319.288147,374.648804 316.890076,374.986359 
	C315.130829,375.233978 312.441010,376.914948 312.177887,378.330963 
	C311.134430,383.946991 310.882019,389.709991 310.295746,395.844543 
	C314.943787,395.769348 318.807770,396.731384 322.552399,395.906006 
	C322.558777,395.344238 322.565155,394.782440 322.571564,394.220673 
	C321.026642,393.944366 319.481750,393.668091 317.090851,393.333160 
M437.993103,211.820190 
	C439.627808,213.012848 441.333374,214.121948 442.872559,215.427231 
	C443.914734,216.311050 444.722870,217.470810 445.635651,218.507141 
	C446.096191,218.154114 446.556732,217.801086 447.017273,217.448059 
	C445.795288,215.156189 444.988983,212.436554 443.214996,210.712830 
	C441.884125,209.419662 438.928040,208.409348 437.357666,209.008545 
	C432.300323,210.938232 427.549591,213.671555 422.373199,216.248016 
	C424.448151,220.149857 426.274811,223.584824 428.101471,227.019791 
	C428.694397,226.817444 429.287323,226.615112 429.880249,226.412766 
	C428.851349,223.515457 427.822449,220.618134 426.686188,217.418579 
	C428.516998,216.507584 430.366974,215.587067 431.793030,214.877487 
	C433.690826,217.040115 435.189606,218.748077 436.856323,220.647369 
	C438.865479,216.911713 432.407776,214.781967 437.993103,211.820190 
M212.130249,324.608002 
	C213.876389,327.981201 215.622543,331.354370 217.694870,335.357666 
	C221.189987,330.993042 215.876648,328.786560 216.256241,325.250275 
	C217.823196,324.467377 219.676422,323.541473 220.900726,322.929779 
	C224.044464,323.724304 222.736099,328.901093 227.350189,327.565308 
	C226.417343,325.349579 225.593094,323.391754 224.778473,321.456848 
	C229.447281,318.356140 229.583649,318.434021 232.245346,323.120972 
	C232.926331,324.320129 234.081467,325.250000 235.018768,326.303558 
	C235.390030,325.996033 235.761292,325.688477 236.132553,325.380920 
	C235.746109,324.337769 235.441513,323.255127 234.960007,322.257874 
	C231.675705,315.455780 230.015366,314.844269 223.480042,318.152802 
	C219.783173,320.024353 216.154007,322.029602 212.130249,324.608002 
M234.800110,206.325851 
	C238.193542,201.396011 238.193542,201.396011 236.546280,199.106934 
	C234.767014,201.492004 233.032990,203.816437 231.123291,206.376373 
	C229.179672,204.992508 227.494339,203.792542 225.998016,202.727173 
	C227.161362,200.282623 228.117126,198.274277 229.072876,196.265930 
	C228.544647,195.996109 228.016418,195.726273 227.488190,195.456436 
	C226.096298,197.184189 224.704422,198.911942 223.345795,200.598404 
	C214.471390,197.358353 223.438782,193.023300 221.994522,188.802780 
	C219.690033,191.060547 217.560837,193.535034 216.529190,196.404160 
	C216.079926,197.653564 217.442444,200.269989 218.745361,201.301254 
	C222.842911,204.544479 227.302551,207.330246 231.779373,210.401077 
	C232.803207,209.016220 233.579468,207.966217 234.800110,206.325851 
M207.916489,210.616028 
	C208.846130,212.388306 209.324554,214.889740 210.789810,215.796524 
	C215.232590,218.545929 220.057373,220.678040 224.975357,223.173431 
	C226.948837,219.200256 229.227600,215.878906 230.139084,212.064514 
	C229.528442,211.789230 228.917816,211.513947 228.307190,211.238678 
	C226.820007,213.827560 225.332825,216.416443 223.727264,219.211395 
	C221.650345,218.103256 219.828629,217.131271 218.155807,216.238739 
	C218.951019,213.702881 219.619720,211.570480 220.288406,209.438065 
	C219.723862,209.245346 219.159317,209.052612 218.594757,208.859894 
	C217.468948,210.755081 216.343140,212.650284 215.232651,214.519669 
	C210.289093,213.468796 210.199188,210.837906 212.155762,207.175095 
	C212.748535,206.065399 212.615631,204.568085 212.815109,203.248306 
	C212.290787,203.204300 211.766479,203.160294 211.242172,203.116287 
	C210.172562,205.355774 209.102966,207.595245 207.916489,210.616028 
M442.222260,234.553665 
	C442.369476,233.402466 442.276245,232.147446 442.718445,231.123657 
	C443.438141,229.457336 444.507843,227.942200 445.429871,226.363281 
	C446.484802,227.695938 447.539185,229.029053 448.594910,230.361099 
	C449.387360,231.360870 450.181519,232.359268 450.974945,233.358292 
	C451.355682,233.110641 451.736420,232.863007 452.117157,232.615356 
	C451.878235,231.730515 451.679871,230.832306 451.393188,229.963226 
	C450.302704,226.657166 449.536072,222.636978 444.890656,223.201340 
	C440.596405,223.723053 439.633789,227.199478 439.692932,231.021240 
	C439.700439,231.506561 439.632416,232.071228 439.386963,232.467621 
	C438.655334,233.649246 437.756348,235.741974 437.035095,235.696457 
	C435.683105,235.611191 434.073975,234.533768 433.188782,233.391083 
	C432.065186,231.940689 431.555725,230.014526 430.629639,227.956223 
	C428.620544,231.269958 430.166321,236.479630 433.445831,238.231796 
	C437.174255,240.223785 440.114471,239.094925 442.222260,234.553665 
M260.197723,365.048920 
	C259.786255,364.145172 259.205200,363.278351 258.998901,362.329987 
	C258.579285,360.400848 258.362000,358.427734 258.061310,356.472748 
	C259.935455,357.033112 261.800507,357.627075 263.687378,358.140625 
	C264.726410,358.423370 265.802216,358.570892 266.861450,358.779419 
	C267.009827,358.342041 267.158203,357.904663 267.306549,357.467285 
	C265.610199,356.211243 264.074127,354.491577 262.170990,353.833618 
	C260.379059,353.214081 257.291992,352.907745 256.403351,353.909027 
	C255.053604,355.429871 254.945648,358.179108 254.659485,360.450562 
	C254.556107,361.271118 255.714493,362.181519 255.849518,363.115631 
	C256.128204,365.043945 256.106140,367.015717 256.207764,368.969604 
	C254.270844,368.610474 252.304230,368.362274 250.407196,367.854218 
	C249.085098,367.500153 247.858429,366.789795 246.589127,366.238617 
	C246.377991,366.717072 246.166855,367.195557 245.955704,367.674042 
	C248.995544,370.217590 251.803482,374.158936 256.364624,372.249786 
	C258.279694,371.448212 259.094269,368.017426 260.197723,365.048920 
M389.374908,176.819473 
	C388.447083,181.010910 392.351776,181.552490 394.504791,182.425217 
	C396.327545,183.164062 399.734528,182.540741 401.084229,181.177505 
	C402.407898,179.840515 402.391235,176.786865 402.253662,174.529861 
	C402.161926,173.025223 400.537659,171.668427 400.149872,170.108582 
	C399.884949,169.042816 400.283417,167.523911 400.954895,166.640579 
	C401.269470,166.226761 403.057129,166.584106 403.951813,167.037064 
	C405.509460,167.825699 406.892426,168.959229 408.631714,170.140442 
	C408.989288,169.132324 409.526245,168.404739 409.343750,168.008728 
	C407.881653,164.836426 401.783020,162.224060 399.296875,163.596527 
	C396.245453,165.281052 395.804657,168.905762 398.133392,173.201996 
	C398.448792,173.783951 399.002136,174.331879 399.066223,174.935806 
	C399.210236,176.292480 399.643402,178.425690 399.000183,178.877197 
	C397.926117,179.631195 395.980743,179.736221 394.624298,179.344742 
	C392.955353,178.863098 391.514130,177.592300 389.374908,176.819473 
M251.813385,162.612091 
	C248.576538,159.460373 247.199463,163.439011 245.819092,164.708603 
	C244.466522,165.952606 243.345703,169.190140 244.057755,170.505356 
	C244.989517,172.226379 247.711609,173.308762 249.874054,173.914886 
	C251.281754,174.309464 253.073380,173.068222 254.675720,173.117874 
	C255.980942,173.158340 257.875153,173.695557 258.375610,174.623398 
	C258.859650,175.520767 258.241852,177.452271 257.489807,178.474915 
	C256.320679,180.064697 254.627930,181.269424 253.157135,182.637390 
	C253.535583,183.162720 253.914032,183.688049 254.292480,184.213379 
	C256.035309,183.036545 258.425232,182.229324 259.360779,180.591385 
	C260.591309,178.437057 261.531616,175.450485 261.049255,173.145645 
	C260.381104,169.953018 257.290955,169.593307 254.162476,169.917191 
	C251.770767,170.164810 249.306976,169.716415 246.875244,169.577606 
	C248.437424,167.477234 249.999603,165.376846 251.813385,162.612091 
M299.831116,155.839539 
	C299.011047,153.245224 296.919312,150.178177 297.667084,148.166718 
	C298.806793,145.100952 301.911346,142.765640 304.551819,139.688690 
	C300.976715,139.200867 298.079407,140.507492 295.836060,143.491104 
	C292.862396,147.446045 293.689514,154.431976 297.473938,158.132797 
	C300.596558,161.186417 305.163910,161.435822 309.239532,158.437241 
	C306.096771,157.721909 303.275909,157.079849 299.831116,155.839539 
M302.417480,391.209106 
	C298.274170,389.050293 298.327759,385.361816 299.347870,381.695465 
	C300.845764,376.311920 305.164490,375.687500 310.111603,376.634277 
	C308.790253,373.557373 306.775757,372.899780 302.956146,373.882355 
	C298.176239,375.112000 295.119598,380.250061 295.714142,386.055786 
	C296.267273,391.457184 299.478271,394.147003 306.349213,393.659912 
	C305.263611,392.979156 304.178009,392.298401 302.417480,391.209106 
M395.243622,348.237976 
	C395.144470,348.929016 395.045319,349.620026 394.946136,350.311096 
	C396.681244,349.676270 398.416351,349.041443 399.667450,348.583710 
	C403.236267,351.936798 406.674377,355.302917 410.289673,358.466522 
	C411.174347,359.240662 412.639313,359.351624 413.837463,359.767517 
	C413.381134,358.694122 413.167084,357.400879 412.426849,356.585114 
	C409.092133,352.910339 405.608215,349.370972 402.367065,345.980438 
	C403.306244,344.174164 404.136536,342.577362 404.966797,340.980560 
	C404.396515,340.621490 403.826202,340.262421 403.255920,339.903351 
	C400.777313,342.513611 398.298676,345.123840 395.243622,348.237976 
M414.852173,177.286499 
	C412.578369,179.695602 410.034454,181.910141 408.115387,184.574738 
	C406.551971,186.745544 402.004852,187.593613 404.425354,193.167206 
	C409.096832,187.965775 413.155945,183.446182 416.846466,179.336960 
	C419.210236,180.442093 420.774933,181.173630 422.200989,181.840332 
	C419.185944,178.197205 416.368103,174.792389 413.550262,171.387573 
	C413.080414,171.752960 412.610565,172.118362 412.140686,172.483749 
	C413.073730,173.846527 414.006775,175.209290 414.852173,177.286499 
M236.604736,191.105316 
	C233.274826,188.208206 229.944916,185.311096 226.467896,182.285995 
	C225.869629,183.111816 225.134094,184.053268 225.171890,184.085419 
	C229.978317,188.173050 234.573685,192.638428 239.918381,195.858887 
	C241.045319,196.537933 244.982452,192.708130 247.475342,190.764267 
	C247.778946,190.527512 247.148712,189.093201 246.868210,187.844070 
	C240.832794,193.577576 240.832794,193.577576 236.604736,191.105316 
M333.753845,148.957489 
	C333.542633,151.763428 333.254395,154.567520 333.187531,157.376892 
	C333.174713,157.915131 333.963562,158.801926 334.511993,158.918365 
	C334.940063,159.009262 336.005371,158.189362 336.042603,157.715668 
	C336.554749,151.197601 336.937592,144.669388 337.352173,138.143646 
	C336.698883,138.013245 336.045563,137.882828 335.392273,137.752411 
	C332.975311,140.643112 334.504272,144.661896 333.753845,148.957489 
M334.732819,396.065155 
	C335.455261,395.323395 336.817993,394.564392 336.798553,393.842621 
	C336.647705,388.240723 336.310699,382.638763 335.808533,377.056885 
	C335.733124,376.218781 334.498810,375.484894 333.428528,374.286041 
	C333.013611,375.642822 332.822937,375.954529 332.840820,376.253784 
	C333.223907,382.669189 333.630402,389.083221 334.732819,396.065155 
M417.672302,328.795074 
	C430.958466,337.247406 430.958466,337.247406 433.142181,335.120789 
	C427.269043,331.377838 421.472778,327.683868 415.624878,323.956970 
	C412.321960,326.857697 415.791534,327.230042 417.672302,328.795074 
M425.158661,210.640869 
	C429.763611,207.710358 434.368561,204.779846 438.973480,201.849350 
	C438.700104,201.267426 438.426727,200.685516 438.153351,200.103607 
	C437.015564,200.408508 435.733887,200.475052 434.765167,201.059952 
	C430.800201,203.453857 426.853271,205.896133 423.071442,208.564056 
	C421.876282,209.407166 421.216583,211.009308 420.311829,212.264053 
	C421.723053,211.855133 423.134277,211.446198 425.158661,210.640869 
z"/>
<path fill="#030737" opacity="1.000000" stroke="none" 
	d="
M225.735168,445.266541 
	C228.882202,448.144257 231.779861,450.770996 234.677536,453.397705 
	C234.381561,453.870575 234.085602,454.343414 233.789627,454.816254 
	C230.371506,454.816254 226.953186,454.840118 223.535294,454.812225 
	C206.720703,454.674927 189.852890,455.316681 173.104401,454.189484 
	C148.797089,452.553650 138.678665,441.911774 136.228943,417.502075 
	C135.797745,413.205444 135.828094,408.852814 135.815948,404.525543 
	C135.771194,388.580811 135.798172,372.635895 135.798172,355.020660 
	C166.420959,385.748352 195.953384,415.381958 225.735168,445.266541 
z"/>
<path fill="#030738" opacity="1.000000" stroke="none" 
	d="
M515.078430,150.000137 
	C515.076416,159.448822 515.076416,168.397537 515.076416,178.357040 
	C481.806946,145.193039 449.259216,112.748474 415.875458,79.470535 
	C418.576630,79.336723 419.984772,79.199776 421.392090,79.207397 
	C440.049408,79.308464 458.761627,78.568069 477.350433,79.755562 
	C502.879364,81.386398 513.751892,93.333061 514.873413,119.015678 
	C515.316467,129.160828 515.033020,139.337723 515.078430,150.000137 
z"/>
<path fill="#020637" opacity="1.000000" stroke="none" 
	d="
M549.871582,307.871796 
	C540.722534,317.063538 531.823730,326.005402 522.208618,335.666992 
	C522.208618,288.669128 522.208618,242.677338 522.208618,196.685547 
	C522.559143,196.362030 522.909668,196.038528 523.260193,195.715027 
	C524.202209,196.982239 525.013977,198.376358 526.106018,199.497437 
	C539.812927,213.568924 554.235291,227.013000 567.115723,241.801270 
	C581.192566,257.963104 580.678345,273.430908 567.046448,289.947540 
	C561.868286,296.221466 555.789917,301.752380 549.871582,307.871796 
z"/>
<path fill="#020637" opacity="1.000000" stroke="none" 
	d="
M128.879929,235.001862 
	C128.879929,269.105011 128.879929,303.208160 128.879929,337.311340 
	C128.414490,337.711151 127.949066,338.110962 127.483635,338.510773 
	C126.743233,337.281006 126.215042,335.838959 125.229897,334.853973 
	C114.272598,323.898438 103.114845,313.140106 92.298859,302.048096 
	C87.904510,297.541595 83.827087,292.613831 80.276558,287.419037 
	C71.566063,274.674774 71.368568,261.640503 80.319023,248.840073 
	C82.691193,245.447540 85.536804,242.386078 88.837364,239.103989 
	C98.293335,244.270004 100.540291,244.166138 106.464645,238.306442 
	C106.903358,237.872513 107.499725,237.598007 107.974548,237.281540 
	C116.576492,245.272568 120.495186,244.846664 127.958199,235.329697 
	C128.128265,235.112839 128.566696,235.106445 128.879929,235.001862 
z"/>
<path fill="#040839" opacity="1.000000" stroke="none" 
	d="
M128.964081,234.630981 
	C128.566696,235.106445 128.128265,235.112839 127.958199,235.329697 
	C120.495186,244.846664 116.576492,245.272568 107.974548,237.281540 
	C107.499725,237.598007 106.903358,237.872513 106.464645,238.306442 
	C100.540291,244.166138 98.293335,244.270004 89.140846,238.973083 
	C99.932312,227.608109 111.092636,216.305466 122.721832,205.183563 
	C125.068947,207.575592 126.947197,209.786850 128.825455,211.998123 
	C128.879684,213.068680 128.933914,214.139236 128.588272,215.689880 
	C126.484306,218.133789 124.661209,220.011429 123.141785,222.109024 
	C122.622162,222.826416 122.390678,224.451630 122.840935,225.050125 
	C124.680244,227.494919 126.834183,229.703003 128.872238,231.998260 
	C128.930908,232.752213 128.989578,233.506149 128.964081,234.630981 
M115.522469,231.065628 
	C115.390228,232.807617 115.257980,234.549622 115.125732,236.291611 
	C116.552086,236.387894 118.300011,237.024216 119.310669,236.422394 
	C120.245209,235.865921 121.117966,233.160614 120.749886,232.834976 
	C119.515785,231.743210 117.714630,231.292419 115.522469,231.065628 
z"/>
<path fill="#040839" opacity="1.000000" stroke="none" 
	d="
M283.398010,44.006615 
	C291.049805,49.245174 291.022888,51.027725 283.425140,62.037567 
	C290.140198,69.577477 290.728790,72.402420 286.123657,76.861511 
	C285.742188,73.224060 283.653015,72.088089 280.274567,72.125145 
	C272.326935,72.212318 264.377686,72.153076 255.147049,72.153076 
	C264.975098,62.300064 274.035980,53.216183 283.398010,44.006615 
z"/>
<path fill="#020637" opacity="1.000000" stroke="none" 
	d="
M128.953217,231.537674 
	C126.834183,229.703003 124.680244,227.494919 122.840935,225.050125 
	C122.390678,224.451630 122.622162,222.826416 123.141785,222.109024 
	C124.661209,220.011429 126.484306,218.133789 128.512604,216.085999 
	C128.902603,221.027054 128.968399,226.052078 128.953217,231.537674 
z"/>
<path fill="#020637" opacity="1.000000" stroke="none" 
	d="
M128.898102,211.542450 
	C126.947197,209.786850 125.068947,207.575592 123.034119,205.046295 
	C124.297897,203.190826 125.718254,201.653366 127.699593,200.042511 
	C128.438934,199.980408 128.617310,199.991699 128.795685,200.003006 
	C128.854050,203.697601 128.912399,207.392197 128.898102,211.542450 
z"/>
<path fill="#040839" opacity="1.000000" stroke="none" 
	d="
M128.833038,199.706772 
	C128.617310,199.991699 128.438934,199.980408 127.995285,199.929871 
	C128.110138,199.730606 128.490265,199.570572 128.833038,199.706772 
z"/>
<path fill="#F8F802" opacity="1.000000" stroke="none" 
	d="
M328.992767,255.036453 
	C323.136597,260.503387 316.969849,265.201538 308.628601,266.478912 
	C296.113403,268.395477 283.123413,261.873932 277.161255,250.182556 
	C271.197784,238.488602 273.407837,224.297791 282.888000,215.966705 
	C282.187347,218.953110 279.709839,222.260086 280.466827,223.379257 
	C283.352814,227.645981 283.645691,231.466888 281.294708,235.867996 
	C280.926544,236.557190 281.278137,237.871918 281.693359,238.698166 
	C283.898468,243.086029 286.221588,247.414871 288.543701,251.742752 
	C288.655823,251.951675 289.145203,251.958145 289.657745,252.122726 
	C289.932709,251.101227 290.201111,250.104034 290.668945,248.365936 
	C293.320831,250.132675 295.515076,251.594513 298.030762,253.270508 
	C296.496521,245.430481 302.234955,242.336182 306.645630,238.190475 
	C304.490479,235.870209 302.506134,233.733826 299.686035,230.697662 
	C299.041321,234.317245 298.575043,236.935120 298.043549,239.918945 
	C294.170502,242.100815 292.856262,237.537903 290.680206,235.770081 
	C289.157318,234.532928 287.827118,232.093048 290.474487,229.366608 
	C291.560150,228.248489 290.470886,222.627792 289.642700,222.450119 
	C285.766052,221.618484 285.195099,218.120651 283.075623,215.972748 
	C283.958984,214.704987 284.598145,213.122330 285.763702,212.218399 
	C296.744629,203.702454 312.319916,203.874893 323.130157,212.503860 
	C334.272430,221.397888 337.809753,236.376328 331.802673,249.253479 
	C331.175201,250.598587 330.510834,251.926498 329.722473,253.749786 
	C329.324310,254.458801 329.128113,254.725220 328.992767,255.036453 
M314.515076,211.084396 
	C313.935364,212.149963 313.619812,213.592773 312.730164,214.215652 
	C308.923431,216.880890 310.994019,219.431549 312.893890,221.681976 
	C314.107269,223.119263 316.009003,223.975464 317.640472,225.119064 
	C321.237640,221.111252 317.108887,220.119400 315.823700,217.526382 
	C317.960968,218.469711 320.098236,219.413040 321.507507,220.035049 
	C321.507507,224.410095 321.507507,228.015060 321.507507,230.948883 
	C322.739868,232.640335 324.635498,234.078613 324.476135,235.233292 
	C323.912933,239.314621 326.633911,238.308319 328.647308,238.805832 
	C330.896027,225.044052 324.743317,216.295502 314.515076,211.084396 
M298.705627,260.794312 
	C302.075317,262.377197 305.439240,263.730835 308.664825,260.515076 
	C305.459564,256.785034 301.062927,256.629944 298.705627,260.794312 
z"/>
<path fill="#FAFB01" opacity="1.000000" stroke="none" 
	d="
M351.079651,267.952484 
	C352.911469,268.978271 354.265289,269.820831 356.581329,267.919006 
	C362.462677,263.089447 370.360443,264.266296 374.621429,270.019653 
	C378.891388,275.785095 377.517670,283.850647 371.555939,288.018250 
	C365.633423,292.158447 358.102509,290.591003 353.732880,284.300781 
	C353.270111,283.634583 352.853729,282.936157 352.250427,281.994446 
	C344.302429,284.263947 336.378510,286.526550 328.711334,288.715820 
	C328.099426,291.764801 327.554688,294.479126 326.975220,297.924286 
	C326.962250,299.086884 326.984039,299.518616 327.005829,299.950378 
	C325.871674,300.379211 324.577545,300.586823 323.629211,301.272644 
	C317.241882,305.891937 309.523956,304.878784 305.182861,298.748016 
	C301.316101,293.287109 302.600952,285.395782 308.009308,281.388550 
	C313.941803,276.992950 321.792786,278.492096 326.340240,284.901642 
	C326.803345,285.554382 327.187866,286.262878 327.742065,287.161499 
	C335.760040,284.867432 343.703308,282.594757 352.178986,280.169739 
	C349.853210,276.616119 355.784637,272.496185 350.421448,268.977478 
	C350.530731,268.302856 350.794800,268.113190 351.079651,267.952484 
z"/>
<path fill="#FAFB03" opacity="1.000000" stroke="none" 
	d="
M340.105743,306.934296 
	C341.369720,306.464539 342.802155,306.234497 343.869202,305.484558 
	C349.186493,301.747528 355.977020,301.930634 360.412262,306.084625 
	C364.725464,310.124329 365.637451,317.160339 362.488373,322.102264 
	C359.109619,327.404663 352.451416,329.466644 346.732147,326.981842 
	C340.951904,324.470551 338.109222,318.587952 339.482117,312.196228 
	C339.742706,310.983002 339.608215,309.684906 339.479614,307.959167 
	C339.549561,307.275848 339.817047,307.089813 340.105743,306.934296 
z"/>
<path fill="#F3F4F2" opacity="1.000000" stroke="none" 
	d="
M450.183960,275.102722 
	C447.310120,278.748840 443.482574,279.502594 440.267426,277.508759 
	C437.976501,276.088074 435.483154,272.583527 435.672699,270.216522 
	C435.883972,267.578552 438.557709,264.044464 441.040192,263.006470 
	C443.271606,262.073395 447.365662,263.168915 449.435242,264.850281 
	C452.447083,267.297089 452.651581,271.201874 450.183960,275.102722 
z"/>
<path fill="#F3F4F2" opacity="1.000000" stroke="none" 
	d="
M208.623566,262.197357 
	C213.382324,263.533813 215.968185,266.492432 215.513977,270.981781 
	C215.157928,274.500824 213.407364,277.586761 209.167450,278.207092 
	C203.958588,278.969208 200.139435,276.426392 199.414124,271.523224 
	C198.627182,266.203522 201.645782,262.987030 208.623566,262.197357 
z"/>
<path fill="#E5E5E7" opacity="1.000000" stroke="none" 
	d="
M286.051483,156.019516 
	C280.256653,158.282181 280.256653,158.282181 282.573639,167.274796 
	C280.125427,167.506256 275.921661,160.092606 275.042755,153.993408 
	C274.286652,148.746918 277.515991,145.762268 286.066711,143.804718 
	C291.392517,153.418518 293.855774,161.872482 291.458588,164.401093 
	C290.336975,161.653885 289.311462,159.142151 288.079681,155.957520 
	C286.777405,152.545319 285.681458,149.806015 284.594482,147.089188 
	C277.109161,149.532013 276.230682,151.238358 279.353424,156.291306 
	C280.974030,155.453812 282.526550,154.477493 284.217316,153.922287 
	C284.562012,153.809113 285.426575,155.279251 286.051483,156.019516 
z"/>
<path fill="#E4E5E6" opacity="1.000000" stroke="none" 
	d="
M372.179138,376.977631 
	C373.806519,384.836365 371.434845,387.993408 361.642548,390.936401 
	C359.384827,384.485291 357.116119,378.002747 354.862030,371.561981 
	C363.151184,366.686371 368.580872,368.330658 372.179138,376.977631 
M363.137512,386.426575 
	C364.016449,386.526031 365.049805,386.974915 365.748322,386.666229 
	C369.323578,385.086029 370.519287,381.179565 368.902069,376.931885 
	C367.170990,372.385101 364.426056,371.147491 358.442688,372.614197 
	C359.949097,376.986359 361.441376,381.317535 363.137512,386.426575 
z"/>
<path fill="#E5E5E7" opacity="1.000000" stroke="none" 
	d="
M416.138489,344.768494 
	C417.674683,346.033691 419.322571,347.191040 420.696381,348.613159 
	C421.313446,349.251923 421.382355,350.420197 421.699951,351.348206 
	C420.714478,351.177307 419.494873,351.317657 418.783539,350.782440 
	C415.466553,348.286652 412.218506,345.686493 409.084839,342.963623 
	C406.397400,340.628448 405.305969,337.422638 407.662170,334.610931 
	C409.244293,332.722900 412.353912,330.633240 414.372925,330.983185 
	C416.685638,331.383972 418.547791,334.384460 419.975128,336.607635 
	C423.089386,338.023743 426.203644,339.439850 429.317902,340.855957 
	C429.093689,341.528870 428.869507,342.201782 428.645294,342.874725 
	C427.505310,342.586304 426.141937,342.600433 425.266296,341.953949 
	C422.396332,339.835144 419.852722,339.615936 416.905914,342.877869 
	C415.933075,343.108978 415.508514,343.012939 415.042603,342.541504 
	C415.390045,341.275513 416.101532,340.384094 416.099426,339.494385 
	C416.095215,337.726807 415.697968,335.960205 415.463135,334.193176 
	C413.843231,334.472046 411.371552,334.231110 410.808044,335.154572 
	C410.011597,336.459717 410.133667,338.834076 410.782593,340.360535 
	C411.359802,341.718323 413.188629,342.544037 414.644348,343.794067 
	C415.261932,344.245178 415.700195,344.506836 416.138489,344.768494 
z"/>
<path fill="#E4E5E6" opacity="1.000000" stroke="none" 
	d="
M366.412994,165.319550 
	C363.168701,164.949356 360.296997,164.497696 356.727081,163.936218 
	C359.161713,156.818832 361.368774,150.366714 363.559174,143.963333 
	C370.157593,144.401962 374.404785,147.718491 374.985352,152.734482 
	C375.624207,158.254257 372.334320,163.270935 366.412994,165.319550 
M361.793762,158.300552 
	C361.679230,159.520294 361.243927,161.713684 361.503113,161.799088 
	C362.996765,162.291183 364.817688,162.797455 366.226013,162.349823 
	C370.249146,161.071045 371.679657,157.646133 371.787689,153.773163 
	C371.896149,149.885193 369.582031,147.852783 365.698242,147.023468 
	C364.407990,150.681717 363.200623,154.104904 361.793762,158.300552 
z"/>
<path fill="#E1E2E4" opacity="1.000000" stroke="none" 
	d="
M342.008789,378.796509 
	C342.930542,384.279602 343.822235,389.328033 344.713898,394.376465 
	C344.352051,394.675171 343.990234,394.973877 343.628418,395.272583 
	C342.895325,394.416168 341.697937,393.652618 341.505005,392.688141 
	C340.307404,386.701813 339.335236,380.670410 338.340332,374.953217 
	C338.785980,374.473816 338.880493,374.272888 339.011230,374.245605 
	C351.841614,371.566895 353.794220,371.894226 355.365356,384.965393 
	C355.674988,387.541229 356.231720,390.087341 356.674500,392.647156 
	C356.192139,392.861847 355.709778,393.076538 355.227417,393.291260 
	C354.558319,392.238007 353.543732,391.263184 353.283722,390.117126 
	C352.439575,386.396454 352.091248,382.552277 351.075684,378.887665 
	C350.731628,377.645966 348.874298,375.862366 347.876740,375.964813 
	C345.850037,376.173004 343.937988,377.497467 342.008789,378.796509 
z"/>
<path fill="#E4E5E6" opacity="1.000000" stroke="none" 
	d="
M347.550659,139.447327 
	C356.427094,140.975052 357.559692,142.588806 356.138123,151.224075 
	C355.679047,154.012802 355.336700,156.825500 354.743866,159.584915 
	C354.530182,160.579605 353.738647,161.450165 353.210815,162.377380 
	C352.672577,162.201279 352.134338,162.025162 351.596100,161.849060 
	C352.099152,158.233612 352.533783,154.607040 353.119568,151.005051 
	C354.312744,143.668854 353.477020,142.678070 345.627747,142.384491 
	C344.388367,148.353989 343.151733,154.310272 341.915100,160.266571 
	C341.114990,160.096695 340.314880,159.926819 339.514771,159.756943 
	C340.644745,152.902740 341.774750,146.048523 342.949249,138.924377 
	C344.582581,139.074600 345.868927,139.192917 347.550659,139.447327 
z"/>
<path fill="#E5E5E7" opacity="1.000000" stroke="none" 
	d="
M288.960815,379.879395 
	C288.803253,379.927002 288.614044,380.057037 288.492645,380.010437 
	C282.005096,377.518799 278.880829,380.613678 277.844055,386.881134 
	C275.408508,384.999481 275.408508,384.999481 280.283508,372.213196 
	C280.282990,371.823792 280.228424,371.830719 280.228424,371.830719 
	C285.877869,366.939484 288.120758,366.911316 296.255280,371.774231 
	C293.777527,378.161224 291.283112,384.591278 288.484863,391.804535 
	C284.812012,387.663055 289.117554,384.918762 289.366943,381.309845 
	C290.624054,378.149628 291.585144,375.580231 292.524200,373.069733 
	C285.894592,369.718872 284.330017,370.241394 282.566040,375.193787 
	C284.852020,376.868774 286.906433,378.374084 288.960815,379.879395 
z"/>
<path fill="#E1E2E4" opacity="1.000000" stroke="none" 
	d="
M418.888428,193.952682 
	C417.011902,195.296814 415.210327,196.769440 413.225128,197.927231 
	C412.322479,198.453690 411.056458,198.357132 409.955261,198.543167 
	C409.774323,198.077011 409.593414,197.610855 409.412476,197.144699 
	C413.612030,193.963638 417.540375,190.268509 422.138397,187.842865 
	C424.104340,186.805756 428.211456,187.551422 429.974915,189.074310 
	C431.598450,190.476379 432.501282,194.476608 431.664093,196.466782 
	C430.832855,198.442688 427.435913,199.339249 425.041656,200.018494 
	C422.924652,202.761536 420.807617,205.504562 418.690613,208.247604 
	C418.236786,208.098526 417.782959,207.949448 417.329102,207.800369 
	C417.249054,206.894211 416.812531,205.364532 417.142609,205.175812 
	C421.782745,202.522980 421.547638,198.876709 420.085876,194.359833 
	C421.410583,194.547668 422.095367,195.465088 422.953705,195.675964 
	C424.686432,196.101639 426.513489,196.143387 428.301636,196.343506 
	C428.410767,194.702560 429.225983,192.356171 428.460022,191.589584 
	C427.369995,190.498550 424.923279,189.887787 423.415070,190.321075 
	C421.699951,190.813812 420.380096,192.682251 418.888428,193.952682 
z"/>
<path fill="#E7E7E8" opacity="1.000000" stroke="none" 
	d="
M199.790375,229.759430 
	C202.521729,221.565338 203.989136,219.903961 208.707336,220.929398 
	C213.863739,222.050049 218.919708,223.735382 223.654572,225.908203 
	C223.293610,226.695099 222.932663,227.481995 222.571701,228.268890 
	C219.322739,227.211304 216.071030,226.162033 212.825333,225.094467 
	C205.278824,222.612259 204.697144,222.926392 202.418259,231.248016 
	C208.079193,233.183075 213.788834,235.134781 220.692154,237.494507 
	C218.966522,238.454376 217.964310,239.483826 217.324493,239.293716 
	C211.780212,237.646133 206.255630,235.898651 200.854828,233.840637 
	C200.102539,233.553986 200.055145,231.417480 199.790375,229.759430 
z"/>
<path fill="#E5E5E7" opacity="1.000000" stroke="none" 
	d="
M228.105743,308.070496 
	C227.443787,310.240784 227.181198,313.033630 225.940384,313.572052 
	C220.834854,315.787445 215.436584,317.331787 210.122696,319.050995 
	C209.900070,319.123016 209.445114,318.476837 208.114807,317.281342 
	C212.026611,315.926941 215.266647,314.779205 218.523880,313.682587 
	C226.265244,311.076263 226.576599,310.397186 223.413681,302.829865 
	C217.225250,303.098877 211.794052,307.913849 205.449432,307.158752 
	C205.326401,306.556488 205.203369,305.954254 205.080338,305.352020 
	C211.579895,303.164185 218.079437,300.976318 225.146164,298.597565 
	C226.180252,301.817627 227.117783,304.737030 228.105743,308.070496 
z"/>
<path fill="#E3E3E5" opacity="1.000000" stroke="none" 
	d="
M385.943756,361.955383 
	C387.313080,365.056122 388.673492,368.160828 390.053894,371.256622 
	C391.994965,375.609772 391.043091,378.350098 386.759644,380.682037 
	C382.380981,383.065857 379.492035,382.554138 377.002319,378.509857 
	C374.751862,374.854248 372.772491,371.019806 370.895294,367.156494 
	C370.521759,366.387756 371.152313,365.131134 372.498932,364.190643 
	C374.635162,368.087921 376.869873,371.935394 378.874725,375.899139 
	C380.338196,378.792603 382.215820,379.883850 385.248840,378.252930 
	C388.170776,376.681763 388.712067,374.581940 387.034943,371.684357 
	C385.130493,368.394104 383.351166,365.024750 381.683685,361.608643 
	C381.265625,360.752167 381.484192,359.584930 381.410187,358.560516 
	C381.882507,358.419037 382.354797,358.277557 382.827118,358.136078 
	C383.652832,359.451752 384.478577,360.767426 385.652466,362.019226 
	C386.000610,361.955322 385.943756,361.955383 385.943756,361.955383 
z"/>
<path fill="#E3E3E5" opacity="1.000000" stroke="none" 
	d="
M386.881714,169.174072 
	C388.943695,165.315079 390.779053,161.786026 392.792084,158.361389 
	C393.154633,157.744614 394.248657,157.557831 395.004974,157.172562 
	C395.118988,157.996201 395.597687,159.005493 395.288147,159.613449 
	C393.186829,163.740601 391.111267,167.903702 388.651703,171.819229 
	C386.155518,175.793045 382.607574,175.218338 379.104614,173.157364 
	C375.760406,171.189835 373.733093,168.586945 375.786407,164.548752 
	C378.148163,159.903778 380.608307,155.308853 383.025726,150.692200 
	C383.560120,150.858841 384.094513,151.025497 384.628906,151.192139 
	C384.496674,152.331436 384.647247,153.605392 384.180603,154.585464 
	C382.616760,157.869904 380.471375,160.923264 379.284027,164.321991 
	C378.684723,166.037598 378.968597,168.932739 380.091034,170.184570 
	C382.003387,172.317352 384.780945,172.612625 386.881714,169.174072 
z"/>
<path fill="#DDDEE1" opacity="1.000000" stroke="none" 
	d="
M314.378052,146.848190 
	C316.729187,146.922913 318.650970,146.922913 320.572784,146.922913 
	C320.638336,147.504913 320.703857,148.086929 320.769409,148.668930 
	C318.676910,149.150131 316.584442,149.631332 313.937775,150.239960 
	C314.036316,152.133667 314.143799,154.198807 314.262512,156.479355 
	C317.555145,156.305115 320.457306,156.151550 323.550201,155.987900 
	C322.452148,159.217224 321.948822,159.348190 311.569214,159.417908 
	C311.089233,153.922668 310.202423,148.360718 310.241913,142.805359 
	C310.274994,138.149048 315.668610,136.458038 322.198120,139.690933 
	C320.643463,139.979584 319.099976,140.385437 317.532043,140.534256 
	C313.327271,140.933350 311.970062,142.870743 314.378052,146.848190 
z"/>
<path fill="#DDDEE1" opacity="1.000000" stroke="none" 
	d="
M317.513855,393.362488 
	C319.481750,393.668091 321.026642,393.944366 322.571564,394.220673 
	C322.565155,394.782440 322.558777,395.344238 322.552399,395.906006 
	C318.807770,396.731384 314.943787,395.769348 310.295746,395.844543 
	C310.882019,389.709991 311.134430,383.946991 312.177887,378.330963 
	C312.441010,376.914948 315.130829,375.233978 316.890076,374.986359 
	C319.288147,374.648804 321.863281,375.568939 324.239624,376.572906 
	C321.134705,379.536102 314.020447,374.291656 314.686035,383.219482 
	C316.693604,383.539001 318.751099,383.866455 321.187500,384.254242 
	C320.353577,389.394470 316.147949,384.659790 314.274811,387.089447 
	C314.881836,389.025208 311.015930,393.117401 317.513855,393.362488 
z"/>
<path fill="#E0E0E3" opacity="1.000000" stroke="none" 
	d="
M437.627258,211.949158 
	C432.407776,214.781967 438.865479,216.911713 436.856323,220.647369 
	C435.189606,218.748077 433.690826,217.040115 431.793030,214.877487 
	C430.366974,215.587067 428.516998,216.507584 426.686188,217.418579 
	C427.822449,220.618134 428.851349,223.515457 429.880249,226.412766 
	C429.287323,226.615112 428.694397,226.817444 428.101471,227.019791 
	C426.274811,223.584824 424.448151,220.149857 422.373199,216.248016 
	C427.549591,213.671555 432.300323,210.938232 437.357666,209.008545 
	C438.928040,208.409348 441.884125,209.419662 443.214996,210.712830 
	C444.988983,212.436554 445.795288,215.156189 447.017273,217.448059 
	C446.556732,217.801086 446.096191,218.154114 445.635651,218.507141 
	C444.722870,217.470810 443.914734,216.311050 442.872559,215.427231 
	C441.333374,214.121948 439.627808,213.012848 437.627258,211.949158 
z"/>
<path fill="#DDDEE1" opacity="1.000000" stroke="none" 
	d="
M423.830505,311.145599 
	C423.452057,312.536346 423.336365,314.076813 422.645386,315.289459 
	C420.661072,318.771942 420.925385,321.241516 425.510773,322.395355 
	C426.713135,320.584686 428.001862,318.643951 429.290588,316.703217 
	C429.830963,316.901428 430.371338,317.099640 430.911713,317.297852 
	C430.238220,319.455658 429.564728,321.613464 428.749664,324.224854 
	C430.516449,325.125793 432.374023,326.072998 434.367218,327.089386 
	C435.864563,324.294495 437.240326,321.726471 438.642792,319.108643 
	C441.042145,321.265503 440.896210,321.777069 435.402100,331.014374 
	C430.625977,328.588928 425.706635,326.334564 421.035919,323.647949 
	C416.647064,321.123505 417.922729,314.245728 423.549683,311.130249 
	C423.902283,311.177399 423.830505,311.145599 423.830505,311.145599 
z"/>
<path fill="#DDDEE1" opacity="1.000000" stroke="none" 
	d="
M212.312286,324.291321 
	C216.154007,322.029602 219.783173,320.024353 223.480042,318.152802 
	C230.015366,314.844269 231.675705,315.455780 234.960007,322.257874 
	C235.441513,323.255127 235.746109,324.337769 236.132553,325.380920 
	C235.761292,325.688477 235.390030,325.996033 235.018768,326.303558 
	C234.081467,325.250000 232.926331,324.320129 232.245346,323.120972 
	C229.583649,318.434021 229.447281,318.356140 224.778473,321.456848 
	C225.593094,323.391754 226.417343,325.349579 227.350189,327.565308 
	C222.736099,328.901093 224.044464,323.724304 220.900726,322.929779 
	C219.676422,323.541473 217.823196,324.467377 216.256241,325.250275 
	C215.876648,328.786560 221.189987,330.993042 217.694870,335.357666 
	C215.622543,331.354370 213.876389,327.981201 212.312286,324.291321 
z"/>
<path fill="#E0E0E3" opacity="1.000000" stroke="none" 
	d="
M386.002075,361.982849 
	C386.201904,354.853760 387.671936,352.774811 394.482300,351.787109 
	C393.313385,352.981506 391.991699,354.065460 391.023804,355.405090 
	C390.244751,356.483276 389.893585,357.870605 389.352570,359.120789 
	C390.548065,359.502686 391.731873,360.141510 392.942230,360.196503 
	C394.235352,360.255280 395.673218,359.304474 396.835510,359.607910 
	C399.174408,360.218445 402.234833,360.802246 403.363892,362.489960 
	C404.361572,363.981262 403.767883,367.304688 402.727325,369.182129 
	C401.624725,371.171539 399.166229,372.409424 397.299927,373.975525 
	C396.871796,373.672638 396.443634,373.369751 396.015503,373.066864 
	C396.610870,372.041107 397.247650,371.036774 397.792755,369.984985 
	C398.836456,367.971161 399.827972,365.930267 400.841125,363.900574 
	C398.844269,363.639191 396.831818,363.462250 394.854370,363.096161 
	C392.067505,362.580200 389.306610,361.924072 386.239197,361.641632 
	C385.943756,361.955383 386.000610,361.955322 386.002075,361.982849 
z"/>
<path fill="#E1E2E4" opacity="1.000000" stroke="none" 
	d="
M234.577927,206.621033 
	C233.579468,207.966217 232.803207,209.016220 231.779373,210.401077 
	C227.302551,207.330246 222.842911,204.544479 218.745361,201.301254 
	C217.442444,200.269989 216.079926,197.653564 216.529190,196.404160 
	C217.560837,193.535034 219.690033,191.060547 221.994522,188.802780 
	C223.438782,193.023300 214.471390,197.358353 223.345795,200.598404 
	C224.704422,198.911942 226.096298,197.184189 227.488190,195.456436 
	C228.016418,195.726273 228.544647,195.996109 229.072876,196.265930 
	C228.117126,198.274277 227.161362,200.282623 225.998016,202.727173 
	C227.494339,203.792542 229.179672,204.992508 231.123291,206.376373 
	C233.032990,203.816437 234.767014,201.492004 236.546280,199.106934 
	C238.193542,201.396011 238.193542,201.396011 234.577927,206.621033 
z"/>
<path fill="#E7E7E8" opacity="1.000000" stroke="none" 
	d="
M207.974930,210.225372 
	C209.102966,207.595245 210.172562,205.355774 211.242172,203.116287 
	C211.766479,203.160294 212.290787,203.204300 212.815109,203.248306 
	C212.615631,204.568085 212.748535,206.065399 212.155762,207.175095 
	C210.199188,210.837906 210.289093,213.468796 215.232651,214.519669 
	C216.343140,212.650284 217.468948,210.755081 218.594757,208.859894 
	C219.159317,209.052612 219.723862,209.245346 220.288406,209.438065 
	C219.619720,211.570480 218.951019,213.702881 218.155807,216.238739 
	C219.828629,217.131271 221.650345,218.103256 223.727264,219.211395 
	C225.332825,216.416443 226.820007,213.827560 228.307190,211.238678 
	C228.917816,211.513947 229.528442,211.789230 230.139084,212.064514 
	C229.227600,215.878906 226.948837,219.200256 224.975357,223.173431 
	C220.057373,220.678040 215.232590,218.545929 210.789810,215.796524 
	C209.324554,214.889740 208.846130,212.388306 207.974930,210.225372 
z"/>
<path fill="#E0E0E3" opacity="1.000000" stroke="none" 
	d="
M265.029388,166.992676 
	C265.984497,168.890778 267.089050,170.733368 267.824371,172.713120 
	C268.137390,173.555847 267.678070,174.685455 267.569733,175.684692 
	C267.138275,175.755981 266.706818,175.827271 266.275360,175.898560 
	C263.876770,171.667816 261.321686,167.516388 259.124969,163.183319 
	C257.053162,159.096710 258.289185,155.518250 262.111450,153.547562 
	C265.739868,151.676819 268.910553,152.294327 271.166412,155.753540 
	C273.567688,159.435745 272.670807,162.660812 269.263580,165.261856 
	C268.478973,165.860794 267.596466,166.331421 266.274048,166.609085 
	C266.347748,165.287842 267.151001,164.274582 267.411224,163.137070 
	C267.870300,161.130478 268.408447,158.966278 268.025238,157.045242 
	C267.903625,156.435562 263.861938,155.676773 263.509094,156.219101 
	C262.456421,157.837082 261.757324,160.152954 262.034149,162.032104 
	C262.293762,163.794464 263.974182,165.347519 265.029388,166.992676 
z"/>
<path fill="#E4E5E6" opacity="1.000000" stroke="none" 
	d="
M242.993408,337.841614 
	C241.869049,336.706055 240.509048,335.721588 239.665512,334.405975 
	C237.345291,330.787262 234.969040,330.787933 232.250565,333.826416 
	C233.231689,336.029449 234.178604,338.155701 235.125519,340.281982 
	C234.653625,340.528931 234.181732,340.775909 233.709839,341.022858 
	C232.316101,339.350250 230.922363,337.677612 229.227356,335.643433 
	C227.521332,336.803650 225.786301,337.983612 223.810150,339.327545 
	C225.308289,341.546265 226.755905,343.532623 227.995621,345.641174 
	C228.291321,346.144104 227.892853,347.055115 227.813675,347.778442 
	C227.121063,347.577911 226.125595,347.600739 225.785797,347.139984 
	C223.817795,344.471558 222.004318,341.689117 219.814468,338.468658 
	C224.497482,335.275696 228.930328,331.865417 233.733124,329.097015 
	C237.839981,326.729706 243.208923,331.590363 243.063232,337.600891 
	C242.982162,337.909485 242.993408,337.841614 242.993408,337.841614 
z"/>
<path fill="#E3E3E5" opacity="1.000000" stroke="none" 
	d="
M423.913330,311.215057 
	C424.073914,307.013367 422.956146,302.475952 427.713409,299.202118 
	C427.508362,300.717255 427.137756,302.233185 427.145264,303.747253 
	C427.152618,305.232483 427.544495,306.715790 427.767609,308.199951 
	C429.184692,307.644257 430.713257,307.268036 431.984955,306.478241 
	C433.079407,305.798523 433.722076,304.218811 434.847931,303.801270 
	C436.696564,303.115631 439.177460,302.220245 440.650757,302.936829 
	C442.372101,303.774017 444.142670,306.141388 444.375427,308.031616 
	C444.739502,310.988068 444.043671,314.208954 440.144440,315.631531 
	C440.450684,314.281708 441.042511,312.921783 440.995087,311.584534 
	C440.927002,309.665344 440.392792,307.762695 440.057587,305.852966 
	C438.263763,306.639343 435.968872,306.973907 434.773376,308.299805 
	C431.634277,311.781281 428.386047,312.784485 424.055054,310.729218 
	C423.830505,311.145599 423.902283,311.177399 423.913330,311.215057 
z"/>
<path fill="#E3E3E5" opacity="1.000000" stroke="none" 
	d="
M280.310303,371.820709 
	C279.374542,372.352814 278.307678,372.760559 277.466431,373.445435 
	C273.973175,376.289276 270.168335,375.720520 267.481750,371.391907 
	C268.826569,371.272858 269.870789,371.984924 270.644440,371.761230 
	C272.608917,371.193298 274.750488,370.530304 276.182922,369.211914 
	C276.687195,368.747803 275.408264,364.977356 274.818329,364.944183 
	C272.875732,364.834991 270.567230,365.303162 268.992645,366.400787 
	C267.661621,367.328674 267.155518,369.439819 266.284302,371.027283 
	C264.742462,373.551666 263.200592,376.076019 261.658722,378.600372 
	C261.260498,378.570709 260.862274,378.541016 260.464050,378.511322 
	C260.464050,377.328796 260.072845,375.956818 260.536774,374.998993 
	C261.975159,372.029266 263.719757,369.206055 265.380646,366.346375 
	C267.508118,362.683350 270.001343,359.707123 274.903046,361.639465 
	C279.743317,363.547577 280.481598,367.211578 279.720093,371.780762 
	C280.228424,371.830719 280.282990,371.823792 280.310303,371.820709 
z"/>
<path fill="#E0E0E3" opacity="1.000000" stroke="none" 
	d="
M442.133728,234.948425 
	C440.114471,239.094925 437.174255,240.223785 433.445831,238.231796 
	C430.166321,236.479630 428.620544,231.269958 430.629639,227.956223 
	C431.555725,230.014526 432.065186,231.940689 433.188782,233.391083 
	C434.073975,234.533768 435.683105,235.611191 437.035095,235.696457 
	C437.756348,235.741974 438.655334,233.649246 439.386963,232.467621 
	C439.632416,232.071228 439.700439,231.506561 439.692932,231.021240 
	C439.633789,227.199478 440.596405,223.723053 444.890656,223.201340 
	C449.536072,222.636978 450.302704,226.657166 451.393188,229.963226 
	C451.679871,230.832306 451.878235,231.730515 452.117157,232.615356 
	C451.736420,232.863007 451.355682,233.110641 450.974945,233.358292 
	C450.181519,232.359268 449.387360,231.360870 448.594910,230.361099 
	C447.539185,229.029053 446.484802,227.695938 445.429871,226.363281 
	C444.507843,227.942200 443.438141,229.457336 442.718445,231.123657 
	C442.276245,232.147446 442.369476,233.402466 442.133728,234.948425 
z"/>
<path fill="#E4E5E6" opacity="1.000000" stroke="none" 
	d="
M260.303436,365.415405 
	C259.094269,368.017426 258.279694,371.448212 256.364624,372.249786 
	C251.803482,374.158936 248.995544,370.217590 245.955704,367.674042 
	C246.166855,367.195557 246.377991,366.717072 246.589127,366.238617 
	C247.858429,366.789795 249.085098,367.500153 250.407196,367.854218 
	C252.304230,368.362274 254.270844,368.610474 256.207764,368.969604 
	C256.106140,367.015717 256.128204,365.043945 255.849518,363.115631 
	C255.714493,362.181519 254.556107,361.271118 254.659485,360.450562 
	C254.945648,358.179108 255.053604,355.429871 256.403351,353.909027 
	C257.291992,352.907745 260.379059,353.214081 262.170990,353.833618 
	C264.074127,354.491577 265.610199,356.211243 267.306549,357.467285 
	C267.158203,357.904663 267.009827,358.342041 266.861450,358.779419 
	C265.802216,358.570892 264.726410,358.423370 263.687378,358.140625 
	C261.800507,357.627075 259.935455,357.033112 258.061310,356.472748 
	C258.362000,358.427734 258.579285,360.400848 258.998901,362.329987 
	C259.205200,363.278351 259.786255,364.145172 260.303436,365.415405 
z"/>
<path fill="#E1E2E4" opacity="1.000000" stroke="none" 
	d="
M389.674683,176.741028 
	C391.514130,177.592300 392.955353,178.863098 394.624298,179.344742 
	C395.980743,179.736221 397.926117,179.631195 399.000183,178.877197 
	C399.643402,178.425690 399.210236,176.292480 399.066223,174.935806 
	C399.002136,174.331879 398.448792,173.783951 398.133392,173.201996 
	C395.804657,168.905762 396.245453,165.281052 399.296875,163.596527 
	C401.783020,162.224060 407.881653,164.836426 409.343750,168.008728 
	C409.526245,168.404739 408.989288,169.132324 408.631714,170.140442 
	C406.892426,168.959229 405.509460,167.825699 403.951813,167.037064 
	C403.057129,166.584106 401.269470,166.226761 400.954895,166.640579 
	C400.283417,167.523911 399.884949,169.042816 400.149872,170.108582 
	C400.537659,171.668427 402.161926,173.025223 402.253662,174.529861 
	C402.391235,176.786865 402.407898,179.840515 401.084229,181.177505 
	C399.734528,182.540741 396.327545,183.164062 394.504791,182.425217 
	C392.351776,181.552490 388.447083,181.010910 389.674683,176.741028 
z"/>
<path fill="#E7E7E8" opacity="1.000000" stroke="none" 
	d="
M251.687592,162.944275 
	C249.999603,165.376846 248.437424,167.477234 246.875244,169.577606 
	C249.306976,169.716415 251.770767,170.164810 254.162476,169.917191 
	C257.290955,169.593307 260.381104,169.953018 261.049255,173.145645 
	C261.531616,175.450485 260.591309,178.437057 259.360779,180.591385 
	C258.425232,182.229324 256.035309,183.036545 254.292480,184.213379 
	C253.914032,183.688049 253.535583,183.162720 253.157135,182.637390 
	C254.627930,181.269424 256.320679,180.064697 257.489807,178.474915 
	C258.241852,177.452271 258.859650,175.520767 258.375610,174.623398 
	C257.875153,173.695557 255.980942,173.158340 254.675720,173.117874 
	C253.073380,173.068222 251.281754,174.309464 249.874054,173.914886 
	C247.711609,173.308762 244.989517,172.226379 244.057755,170.505356 
	C243.345703,169.190140 244.466522,165.952606 245.819092,164.708603 
	C247.199463,163.439011 248.576538,159.460373 251.687592,162.944275 
z"/>
<path fill="#E0E0E3" opacity="1.000000" stroke="none" 
	d="
M300.143097,156.138672 
	C303.275909,157.079849 306.096771,157.721909 309.239532,158.437241 
	C305.163910,161.435822 300.596558,161.186417 297.473938,158.132797 
	C293.689514,154.431976 292.862396,147.446045 295.836060,143.491104 
	C298.079407,140.507492 300.976715,139.200867 304.551819,139.688690 
	C301.911346,142.765640 298.806793,145.100952 297.667084,148.166718 
	C296.919312,150.178177 299.011047,153.245224 300.143097,156.138672 
z"/>
<path fill="#E5E5E7" opacity="1.000000" stroke="none" 
	d="
M302.754944,391.413391 
	C304.178009,392.298401 305.263611,392.979156 306.349213,393.659912 
	C299.478271,394.147003 296.267273,391.457184 295.714142,386.055786 
	C295.119598,380.250061 298.176239,375.112000 302.956146,373.882355 
	C306.775757,372.899780 308.790253,373.557373 310.111603,376.634277 
	C305.164490,375.687500 300.845764,376.311920 299.347870,381.695465 
	C298.327759,385.361816 298.274170,389.050293 302.754944,391.413391 
z"/>
<path fill="#E1E2E4" opacity="1.000000" stroke="none" 
	d="
M395.531860,347.986023 
	C398.298676,345.123840 400.777313,342.513611 403.255920,339.903351 
	C403.826202,340.262421 404.396515,340.621490 404.966797,340.980560 
	C404.136536,342.577362 403.306244,344.174164 402.367065,345.980438 
	C405.608215,349.370972 409.092133,352.910339 412.426849,356.585114 
	C413.167084,357.400879 413.381134,358.694122 413.837463,359.767517 
	C412.639313,359.351624 411.174347,359.240662 410.289673,358.466522 
	C406.674377,355.302917 403.236267,351.936798 399.667450,348.583710 
	C398.416351,349.041443 396.681244,349.676270 394.946167,350.311096 
	C395.045319,349.620026 395.144470,348.929016 395.531860,347.986023 
z"/>
<path fill="#E5E5E7" opacity="1.000000" stroke="none" 
	d="
M242.950012,337.921722 
	C244.203217,338.312653 245.488541,338.691315 246.773880,339.070007 
	C245.877594,340.303070 245.122330,341.677765 244.055664,342.739685 
	C241.832458,344.952972 239.486450,347.049255 237.112869,349.103455 
	C234.590683,351.286194 234.464188,353.364532 236.828613,355.813354 
	C237.784058,356.802917 238.232407,358.282043 238.459106,359.765167 
	C230.276276,354.834564 230.051971,351.408905 236.822784,345.247955 
	C239.235443,343.052582 241.440430,340.629028 243.366806,338.075623 
	C242.993408,337.841614 242.982162,337.909485 242.950012,337.921722 
z"/>
<path fill="#E7E7E8" opacity="1.000000" stroke="none" 
	d="
M414.895996,176.929276 
	C414.006775,175.209290 413.073730,173.846527 412.140686,172.483749 
	C412.610565,172.118362 413.080414,171.752960 413.550262,171.387573 
	C416.368103,174.792389 419.185944,178.197205 422.200989,181.840332 
	C420.774933,181.173630 419.210236,180.442093 416.846466,179.336960 
	C413.155945,183.446182 409.096832,187.965775 404.425354,193.167206 
	C402.004852,187.593613 406.551971,186.745544 408.115387,184.574738 
	C410.034454,181.910141 412.578369,179.695602 414.895996,176.929276 
z"/>
<path fill="#E3E3E5" opacity="1.000000" stroke="none" 
	d="
M236.861725,191.373520 
	C240.832794,193.577576 240.832794,193.577576 246.868210,187.844070 
	C247.148712,189.093201 247.778946,190.527512 247.475342,190.764267 
	C244.982452,192.708130 241.045319,196.537933 239.918381,195.858887 
	C234.573685,192.638428 229.978317,188.173050 225.171890,184.085419 
	C225.134094,184.053268 225.869629,183.111816 226.467896,182.285995 
	C229.944916,185.311096 233.274826,188.208206 236.861725,191.373520 
z"/>
<path fill="#E0E0E3" opacity="1.000000" stroke="none" 
	d="
M333.780273,148.500809 
	C334.504272,144.661896 332.975311,140.643112 335.392273,137.752411 
	C336.045563,137.882828 336.698883,138.013245 337.352173,138.143646 
	C336.937592,144.669388 336.554749,151.197601 336.042603,157.715668 
	C336.005371,158.189362 334.940063,159.009262 334.511993,158.918365 
	C333.963562,158.801926 333.174713,157.915131 333.187531,157.376892 
	C333.254395,154.567520 333.542633,151.763428 333.780273,148.500809 
z"/>
<path fill="#E1E2E4" opacity="1.000000" stroke="none" 
	d="
M334.382568,395.781311 
	C333.630402,389.083221 333.223907,382.669189 332.840820,376.253784 
	C332.822937,375.954529 333.013611,375.642822 333.428528,374.286041 
	C334.498810,375.484894 335.733124,376.218781 335.808533,377.056885 
	C336.310699,382.638763 336.647705,388.240723 336.798553,393.842621 
	C336.817993,394.564392 335.455261,395.323395 334.382568,395.781311 
z"/>
<path fill="#E3E3E5" opacity="1.000000" stroke="none" 
	d="
M417.381836,328.580322 
	C415.791534,327.230042 412.321960,326.857697 415.624878,323.956970 
	C421.472778,327.683868 427.269043,331.377838 433.142181,335.120789 
	C430.958466,337.247406 430.958466,337.247406 417.381836,328.580322 
z"/>
<path fill="#E1E2E4" opacity="1.000000" stroke="none" 
	d="
M424.852081,210.839066 
	C423.134277,211.446198 421.723053,211.855133 420.311829,212.264069 
	C421.216583,211.009308 421.876282,209.407166 423.071442,208.564056 
	C426.853271,205.896133 430.800201,203.453857 434.765167,201.059952 
	C435.733887,200.475052 437.015564,200.408508 438.153351,200.103607 
	C438.426727,200.685516 438.700104,201.267426 438.973480,201.849350 
	C434.368561,204.779846 429.763611,207.710358 424.852081,210.839066 
z"/>
<path fill="#CFD00A" opacity="1.000000" stroke="none" 
	d="
M350.895264,267.669678 
	C350.794800,268.113190 350.530731,268.302856 350.160767,268.729980 
	C343.138947,264.492920 336.243835,260.047394 329.170776,255.319153 
	C329.128113,254.725220 329.324310,254.458801 329.799683,254.116013 
	C336.915619,258.458832 343.813232,262.922821 350.895264,267.669678 
z"/>
<path fill="#131744" opacity="1.000000" stroke="none" 
	d="
M266.490234,371.052704 
	C267.155518,369.439819 267.661621,367.328674 268.992645,366.400787 
	C270.567230,365.303162 272.875732,364.834991 274.818329,364.944183 
	C275.408264,364.977356 276.687195,368.747803 276.182922,369.211914 
	C274.750488,370.530304 272.608917,371.193298 270.644440,371.761230 
	C269.870789,371.984924 268.826569,371.272858 267.507111,371.009918 
	C267.108643,371.032928 266.696136,371.078125 266.490234,371.052704 
z"/>
<path fill="#131744" opacity="1.000000" stroke="none" 
	d="
M286.356812,156.034790 
	C285.426575,155.279251 284.562012,153.809113 284.217316,153.922287 
	C282.526550,154.477493 280.974030,155.453812 279.353424,156.291306 
	C276.230682,151.238358 277.109161,149.532013 284.594482,147.089188 
	C285.681458,149.806015 286.777405,152.545319 287.878906,155.648102 
	C287.476990,156.024414 287.069550,156.037247 286.356812,156.034790 
z"/>
<path fill="#0C103E" opacity="1.000000" stroke="none" 
	d="
M265.292267,166.994690 
	C263.974182,165.347519 262.293762,163.794464 262.034149,162.032104 
	C261.757324,160.152954 262.456421,157.837082 263.509094,156.219101 
	C263.861938,155.676773 267.903625,156.435562 268.025238,157.045242 
	C268.408447,158.966278 267.870300,161.130478 267.411224,163.137070 
	C267.151001,164.274582 266.347748,165.287842 265.934631,166.662094 
	C265.905151,166.976974 265.730164,166.986832 265.292267,166.994690 
z"/>
<path fill="#131744" opacity="1.000000" stroke="none" 
	d="
M288.957153,380.204590 
	C286.906433,378.374084 284.852020,376.868774 282.566040,375.193787 
	C284.330017,370.241394 285.894592,369.718872 292.524200,373.069733 
	C291.585144,375.580231 290.624054,378.149628 289.370422,380.943665 
	C289.036377,380.955475 288.994934,380.742645 288.957153,380.204590 
z"/>
<path fill="#0F1341" opacity="1.000000" stroke="none" 
	d="
M419.137329,193.979813 
	C420.380096,192.682251 421.699951,190.813812 423.415070,190.321075 
	C424.923279,189.887787 427.369995,190.498550 428.460022,191.589584 
	C429.225983,192.356171 428.410767,194.702560 428.301636,196.343506 
	C426.513489,196.143387 424.686432,196.101639 422.953705,195.675964 
	C422.095367,195.465088 421.410583,194.547668 420.266479,193.961044 
	C419.719208,193.983765 419.552704,193.995361 419.137329,193.979813 
z"/>
<path fill="#CFD00A" opacity="1.000000" stroke="none" 
	d="
M339.934326,306.641663 
	C339.817047,307.089813 339.549561,307.275848 339.174805,307.700500 
	C335.175995,305.429535 331.305634,302.950409 327.220551,300.210846 
	C326.984039,299.518616 326.962250,299.086884 326.967987,298.332031 
	C331.251312,300.788940 335.507141,303.568970 339.934326,306.641663 
z"/>
<path fill="#131744" opacity="1.000000" stroke="none" 
	d="
M416.393616,344.402649 
	C415.700195,344.506836 415.261932,344.245178 414.800018,343.622986 
	C414.776367,343.262421 415.083954,342.916931 415.083954,342.916931 
	C415.508514,343.012939 415.933075,343.108978 416.685608,343.213867 
	C416.891998,343.494049 416.770386,343.765411 416.393616,344.402649 
z"/>
<path fill="#020637" opacity="1.000000" stroke="none" 
	d="
M115.826515,230.830933 
	C117.714630,231.292419 119.515785,231.743210 120.749886,232.834976 
	C121.117966,233.160614 120.245209,235.865921 119.310669,236.422394 
	C118.300011,237.024216 116.552086,236.387894 115.125732,236.291611 
	C115.257980,234.549622 115.390228,232.807617 115.826515,230.830933 
z"/>
<path fill="#0D1135" opacity="1.000000" stroke="none" 
	d="
M283.114502,215.965851 
	C285.195099,218.120651 285.766052,221.618484 289.642700,222.450119 
	C290.470886,222.627792 291.560150,228.248489 290.474487,229.366608 
	C287.827118,232.093048 289.157318,234.532928 290.680206,235.770081 
	C292.856262,237.537903 294.170502,242.100815 298.043549,239.918945 
	C298.575043,236.935120 299.041321,234.317245 299.686035,230.697662 
	C302.506134,233.733826 304.490479,235.870209 306.645630,238.190475 
	C302.234955,242.336182 296.496521,245.430481 298.030762,253.270508 
	C295.515076,251.594513 293.320831,250.132675 290.668945,248.365936 
	C290.201111,250.104034 289.932709,251.101227 289.657745,252.122726 
	C289.145203,251.958145 288.655823,251.951675 288.543701,251.742752 
	C286.221588,247.414871 283.898468,243.086029 281.693359,238.698166 
	C281.278137,237.871918 280.926544,236.557190 281.294708,235.867996 
	C283.645691,231.466888 283.352814,227.645981 280.466827,223.379257 
	C279.709839,222.260086 282.187347,218.953110 283.179138,216.267548 
	C283.178864,215.884216 283.153381,215.958939 283.114502,215.965851 
z"/>
<path fill="#0F1233" opacity="1.000000" stroke="none" 
	d="
M314.855774,211.203339 
	C324.743317,216.295502 330.896027,225.044052 328.647308,238.805832 
	C326.633911,238.308319 323.912933,239.314621 324.476135,235.233292 
	C324.635498,234.078613 322.739868,232.640335 321.507507,230.948883 
	C321.507507,228.015060 321.507507,224.410095 321.507507,220.035049 
	C320.098236,219.413040 317.960968,218.469711 315.823700,217.526382 
	C317.108887,220.119400 321.237640,221.111252 317.640472,225.119064 
	C316.009003,223.975464 314.107269,223.119263 312.893890,221.681976 
	C310.994019,219.431549 308.923431,216.880890 312.730164,214.215652 
	C313.619812,213.592773 313.935364,212.149963 314.855774,211.203339 
z"/>
<path fill="#0F1233" opacity="1.000000" stroke="none" 
	d="
M298.487183,260.484833 
	C301.062927,256.629944 305.459564,256.785034 308.664825,260.515076 
	C305.439240,263.730835 302.075317,262.377197 298.487183,260.484833 
z"/>
<path fill="#0C103E" opacity="1.000000" stroke="none" 
	d="
M363.035583,386.037628 
	C361.441376,381.317535 359.949097,376.986359 358.442688,372.614197 
	C364.426056,371.147491 367.170990,372.385101 368.902069,376.931885 
	C370.519287,381.179565 369.323578,385.086029 365.748322,386.666229 
	C365.049805,386.974915 364.016449,386.526031 363.035583,386.037628 
z"/>
<path fill="#131744" opacity="1.000000" stroke="none" 
	d="
M414.620728,343.433502 
	C413.188629,342.544037 411.359802,341.718323 410.782593,340.360535 
	C410.133667,338.834076 410.011597,336.459717 410.808044,335.154572 
	C411.371552,334.231110 413.843231,334.472046 415.463135,334.193176 
	C415.697968,335.960205 416.095215,337.726807 416.099426,339.494385 
	C416.101532,340.384094 415.390045,341.275513 415.042603,342.541534 
	C415.083954,342.916931 414.776367,343.262421 414.620728,343.433502 
z"/>
<path fill="#0F1341" opacity="1.000000" stroke="none" 
	d="
M361.893524,157.914322 
	C363.200623,154.104904 364.407990,150.681717 365.698242,147.023468 
	C369.582031,147.852783 371.896149,149.885193 371.787689,153.773163 
	C371.679657,157.646133 370.249146,161.071045 366.226013,162.349823 
	C364.817688,162.797455 362.996765,162.291183 361.503113,161.799088 
	C361.243927,161.713684 361.679230,159.520294 361.893524,157.914322 
z"/>
</svg>